<?xml version="1.0" encoding="utf-8"?>
<!-- Generator: Adobe Illustrator 20.0.0, SVG Export Plug-In . SVG Version: 6.00 Build 0)  -->
<svg version="1.1" id="Layer_1" xmlns="http://www.w3.org/2000/svg" xmlns:xlink="http://www.w3.org/1999/xlink" x="0px" y="0px"
	 viewBox="0 0 512 512" style="enable-background:new 0 0 512 512;" xml:space="preserve">
<path d="M341.9,331v-53.2c0-4.8-2.4-8.9-7.3-12.1l-66.5-31.4c16.9-10.5,25.4-27.4,25.4-50.8c0-16.1-4.8-29.8-14.5-41.1
	c-9.7-11.3-21.4-16.9-35.1-16.9s-25.4,5.6-35.1,16.9c-9.7,11.3-14.5,25-14.5,41.1c0,22.6,8.9,39.5,26.6,50.8l-67.7,31.4
	c-4,2.4-6,6.4-6,12.1V331c0,8.9,3.6,13.3,10.9,13.3h171.7C337.9,344.3,341.9,339.9,341.9,331z M457.9,131.5h-29v36.3h29
	c8.1,0,12.1,4,12.1,12.1v36.3c0,8.1-4,12.1-12.1,12.1h-29v35.1h29c8.1,0,12.1,4.4,12.1,13.3v36.3c0,8.1-4,12.1-12.1,12.1h-29V360h29
	c8.1,0,12.1,4.4,12.1,13.3v36.3c0,8.1-4,12.1-12.1,12.1h-29v10.9c0,12.9-6.4,19.3-19.3,19.3H78.3c-12.9,0-19.3-6.4-19.3-19.3V60.2
	c0-12.9,6.4-19.3,19.3-19.3h331.2c12.9,0,19.3,6.4,19.3,19.3v10.9h29c8.1,0,12.1,4,12.1,12.1v36.3C470,127.5,466,131.5,457.9,131.5z
	"/>
</svg>
