<?xml version="1.0" encoding="utf-8"?>
<!-- Generator: Adobe Illustrator 20.0.0, SVG Export Plug-In . SVG Version: 6.00 Build 0)  -->
<svg version="1.1" id="Layer_1" xmlns="http://www.w3.org/2000/svg" xmlns:xlink="http://www.w3.org/1999/xlink" x="0px" y="0px"
	 viewBox="0 0 512 512" style="enable-background:new 0 0 512 512;" xml:space="preserve">
<path d="M476.2,82.4c1.2,1.5,1.7,3.2,1.6,5.1c-0.1,2-0.8,3.6-2.3,4.9l-407.4,353c-1.5,1.2-3.2,1.7-5.1,1.5c-2-0.1-3.5-0.9-4.7-2.4
	l-18.3-20.9c-1.2-1.5-1.7-3.2-1.6-5.1c0.1-2,0.8-3.5,2.3-4.7l40.5-35c-2.8-4.6-4.1-9.4-4.1-14.4c7.3-6.1,13.9-12.5,19.8-19.2
	c5.9-6.7,12.1-15.3,18.5-26c6.4-10.7,11.8-22.2,16.2-34.5c4.4-12.3,8.1-27.3,10.9-44.8c2.8-17.6,4.2-36.4,4.2-56.6
	c0-22.1,8.5-42.5,25.5-61.5s39.2-30.4,66.8-34.5c-1.2-2.8-1.7-5.6-1.7-8.5c0-5.8,2-10.7,6.1-14.8s9-6.1,14.8-6.1
	c5.8,0,10.7,2,14.8,6.1s6.1,9,6.1,14.8c0,2.9-0.6,5.7-1.7,8.5c18,2.6,33.9,8.6,47.7,18c13.8,9.4,24.5,20.8,32.2,34.3l91-79
	c1.5-1.2,3.2-1.7,5.1-1.5c2,0.1,3.5,0.9,4.7,2.4L476.2,82.4z M258.1,430.6c2.3,0,3.5-1.2,3.5-3.5s-1.2-3.5-3.5-3.5
	c-8.6,0-15.9-3.1-22.1-9.2c-6.2-6.2-9.2-13.5-9.2-22.1c0-2.3-1.2-3.5-3.5-3.5c-2.3,0-3.5,1.2-3.5,3.5c0,10.6,3.7,19.6,11.2,27.1
	S247.5,430.6,258.1,430.6z M374.4,243.4c8.9,51.7,30.5,92,64.9,121c0,7.5-2.8,14.1-8.3,19.6s-12,8.3-19.6,8.3h-97.5
	c0,15.4-5.4,28.5-16.3,39.4c-10.9,10.9-24,16.3-39.4,16.3c-15.4,0-28.5-5.4-39.3-16.2c-10.8-10.8-16.3-23.9-16.4-39.3L374.4,243.4z"
	/>
</svg>
