<?xml version="1.0" encoding="UTF-8"?>
<svg width="96px" height="96px" viewBox="0 0 96 96" version="1.1" xmlns="http://www.w3.org/2000/svg" xmlns:xlink="http://www.w3.org/1999/xlink">
    <!-- Generator: Sketch 42 (36781) - http://www.bohemiancoding.com/sketch -->
    <title>webcam</title>
    <desc>Created with Sketch.</desc>
    <defs></defs>
    <g id="Page-1" stroke="none" stroke-width="1" fill="none" fill-rule="evenodd">
        <g id="webcam" fill="#221F20">
            <path d="M90.0261517,49.8829043 C90.0261517,43.6949043 90.0291172,37.5069043 90.0231862,31.3218609 C90.0231862,29.3971652 88.7302207,28.5486435 87.1407034,29.4444696 C81.3282897,32.7232522 75.5247724,36.0227304 69.7064276,39.289687 C68.7633931,39.8189043 68.3541517,40.5225565 68.3600828,41.6105565 C68.3927034,47.1717739 68.3897379,52.7329913 68.3660138,58.2942087 C68.3630483,59.2964696 68.7604276,59.9498609 69.6233931,60.4347304 C75.4061517,63.6928174 81.1740828,66.977513 86.9568414,70.2356 C88.7391172,71.2408174 90.0320828,70.4869043 90.0350483,68.4439478 C90.0469103,62.2559478 90.0409793,56.0709043 90.0409793,49.8829043 L90.0261517,49.8829043" id="Fill-5"></path>
            <path d="M56.8129517,25.6521391 C47.5071586,25.6698783 17.4427448,25.6314435 11.7192966,25.6935304 C8.92577931,25.7260522 6.71943448,27.4792696 6.16488276,30.0425739 C5.96322759,30.9650087 6.00771034,31.9465739 6.00771034,32.9015304 C5.99881379,44.6093565 5.99881379,56.3201391 6.00177931,68.0279652 C6.00474483,71.6792696 8.34750345,74.0770087 11.9921241,74.0888348 C19.5245379,74.1095304 27.0599172,74.0947478 34.592331,74.0947478 L34.592331,74.112487 C42.1988828,74.112487 49.8054345,74.124313 57.4149517,74.1065739 C60.9528138,74.0977043 63.3548828,71.6290087 63.3548828,68.0900522 C63.3489517,56.0865739 63.3519172,44.0830957 63.3489517,32.0796174 C63.3489517,27.9079652 61.0121241,25.6432696 56.8129517,25.6521391" id="Fill-9"></path>
        </g>
    </g>
</svg>