<?xml version="1.0" encoding="utf-8"?>
<!-- Generator: Adobe Illustrator 20.0.0, SVG Export Plug-In . SVG Version: 6.00 Build 0)  -->
<svg version="1.1" id="Layer_1" xmlns="http://www.w3.org/2000/svg" xmlns:xlink="http://www.w3.org/1999/xlink" x="0px" y="0px"
	 viewBox="0 0 48 48" style="enable-background:new 0 0 48 48;" xml:space="preserve">
<g>
	<circle cx="13.5" cy="8.5" r="3.5"/>
	<path d="M28.2,25.4l-7-5c-0.6-0.4-1.4-0.5-2-0.2l0,0l-0.1,0c0,0-0.1,0-0.1,0.1l0,0L15.8,22l0.1-0.2l1.7-5.8l3.4-1.8l5.5-4.7
		c0.6-0.5,0.7-1.3,0.2-1.9c-0.5-0.6-1.3-0.7-1.9-0.2l-5.3,4.2L13.3,14c0,0,0,0,0,0c-0.7,0.3-1.2,0.9-1.4,1.7l-2.8,9.7
		C9.1,25.7,9,25.9,9,26.1c0,1,0.5,2,1.4,2.6c0.4,0.2,0.8,0.3,1.3,0.3c0,0,0.1,0,0.1,0c0,0,0.1,0,0.1,0c0.4,0,0.7-0.1,1.1-0.3
		l6.9-4.3l5.9,4.2c0.9,0.6,2.1,0.4,2.8-0.5C29.3,27.3,29.1,26,28.2,25.4z"/>
	<circle cx="32" cy="17" r="1"/>
	<circle cx="20" cy="36" r="1"/>
	<path d="M32,10c-3.9,0-7,3.1-7,7s3.1,7,7,7s7-3.1,7-7S35.9,10,32,10z M32,22c-2.8,0-5-2.2-5-5s2.2-5,5-5s5,2.2,5,5S34.8,22,32,22z"
		/>
	<path d="M20,29c-3.9,0-7,3.1-7,7s3.1,7,7,7s7-3.1,7-7S23.9,29,20,29z M20,41c-2.8,0-5-2.2-5-5s2.2-5,5-5s5,2.2,5,5S22.8,41,20,41z"
		/>
</g>
</svg>
