<?xml version="1.0" encoding="utf-8"?>
<!-- Generator: Adobe Illustrator 20.0.0, SVG Export Plug-In . SVG Version: 6.00 Build 0)  -->
<svg version="1.1" id="Layer_1" xmlns="http://www.w3.org/2000/svg" xmlns:xlink="http://www.w3.org/1999/xlink" x="0px" y="0px"
	 viewBox="0 0 48 48" style="enable-background:new 0 0 48 48;" xml:space="preserve">
<path d="M40,41.3L34,26l-3.1-10.3l1.5-0.8l0,0l2.6-1.3c0.4-0.2,0.8-0.5,0.9-0.9c0.1-0.4,0.1-0.9-0.2-1.3l-4-5.6
	c-0.5-0.7-1.4-0.9-2.1-0.4c-0.7,0.4-0.9,1.4-0.5,2L27.9,8c-0.2-1.7-1.7-3-3.5-3C22.6,5,21,6.6,21,8.5c0,1.1,0.5,2.1,1.3,2.7L11,17.6
	C11.2,6,17,4,17,4S7.2,5,7,21.6c0,0.1,0,0.2,0,0.3c0,0,0,0.1,0,0.1l0,0c0.1,1.2,0.5,2.5,1.9,3.6C9.4,26,10.1,26,10.4,26c0,0,0,0,0,0
	c0,0,0.1,0,0.1,0c0.8,0,1.5-0.7,1.5-1.5c0-0.4-0.1-0.7-0.3-0.9c0,0,0,0,0,0c0,0,0,0,0,0c-0.1-0.1-0.1-0.1-0.2-0.2
	c-1-0.9-2.4-1.8-2.4-2.1c0-0.2,0.1-0.3,0.1-0.3L25,11.9c0.9-0.1,1.6-0.6,2.1-1.2l3.3-1.8l1.8,2.4l-1.4,0.4c-0.3,0.1-4.3,1.4-4.6,1.5
	c0,0,0,0,0,0c-1.4,0.5-2.2,1.8-2.3,3.1c0,0.5,0.1,0.9,0.2,1.4l0.7,2.5l1.8,6.5c0.2,0.5,0.5,1,0.9,1.3c0.1,0.1,0.3,0.2,0.4,0.3V33
	v0.5l-3.8,7.6c-0.5,1-0.1,2.2,0.9,2.7c0.3,0.1,0.6,0.2,0.9,0.2c0.7,0,1.4-0.4,1.8-1.1l4-7.9c0.1-0.2,0.2-0.4,0.2-0.6l0.2-1.4h0
	l0-0.1l3.9,9.9c0.3,0.8,1.1,1.3,1.9,1.3c0.2,0,0.5,0,0.7-0.1C39.7,43.4,40.2,42.3,40,41.3z"/>
</svg>
