<?xml version="1.0" encoding="utf-8"?>
<!-- Generator: Adobe Illustrator 20.0.0, SVG Export Plug-In . SVG Version: 6.00 Build 0)  -->
<svg version="1.1" id="Layer_1" xmlns="http://www.w3.org/2000/svg" xmlns:xlink="http://www.w3.org/1999/xlink" x="0px" y="0px"
	 viewBox="0 0 48 48" style="enable-background:new 0 0 48 48;" xml:space="preserve">
<g>
	<path d="M35.9,22.4c-0.1-0.2-0.2-0.5-0.5-0.7l-1.6-1.6l-3.2-3.4c-0.1-0.1-0.3-0.2-0.4-0.2c0,0,0,0,0,0c-0.1,0-0.1-0.1-0.2-0.1
		c0,0-0.1-0.1-0.1-0.1l-6.3-3.1C23.3,13,23,13,22.6,13c0,0-0.1,0-0.1,0H18h-0.8l-3.5-4.4c-0.5-0.6-1.5-0.8-2.1-0.2
		c-0.6,0.5-0.8,1.5-0.2,2.1l4,5c0.3,0.4,1.2,0.6,1.2,0.6l1.5,0.2l2,0.3l-2.9,7.3c0,0,0,0,0,0l0,0c0,0.1-0.1,0.1-0.1,0.2l-2.6,6.2
		l0,0l-0.7,1.7c-0.4,0.7-0.1,1.6,0.7,2c0.2,0.1,0.4,0.2,0.7,0.2c0.5,0,1.1-0.3,1.3-0.8l5.1-7.1L19,32.5l0,0l-3.5,9.4
		c-0.3,0.8,0,1.6,0.8,2c0.2,0.1,0.4,0.1,0.6,0.1c0.6,0,1.1-0.3,1.4-0.9l4.3-9.1l0,0l2.9-6l0,0l0,0l0,0l3.7-7.2l2.7,2l0.9,0.6
		L31.1,28c-0.3,0.8,0.2,1.6,0.9,1.9c0.8,0.3,1.6-0.2,1.9-0.9l2-5.6C36,23.1,36,22.7,35.9,22.4z"/>
	<circle cx="29.5" cy="9.5" r="3.5"/>
	<circle cx="17" cy="7" r="3"/>
</g>
</svg>
