<?xml version="1.0" encoding="utf-8"?>
<!-- Generator: Adobe Illustrator 20.0.0, SVG Export Plug-In . SVG Version: 6.00 Build 0)  -->
<svg version="1.1" id="Layer_1" xmlns="http://www.w3.org/2000/svg" xmlns:xlink="http://www.w3.org/1999/xlink" x="0px" y="0px"
	 viewBox="0 0 48 48" style="enable-background:new 0 0 48 48;" xml:space="preserve">
<g>
	<path d="M16,34c-3.1,0-5.6-2.3-6-5.3c3.1-0.8,5.5-3.5,5.9-6.7c0-0.3,0.1-0.7,0.1-1c0-0.3,0-0.7-0.1-1c-0.5-3.9-3.9-7-7.9-7
		c-4.4,0-8,3.6-8,8c0,4.4,3.6,8,8,8c0,0,0,0,0.1,0c0.5,3.9,3.9,7,7.9,7s7.4-3.1,7.9-7c-0.7,0-1.3-0.1-2-0.3C21.6,31.7,19.1,34,16,34
		z M10.2,26.6c0.5-1.9,1.8-3.5,3.6-4.2C13.4,24.3,12,25.9,10.2,26.6z M8.1,27C8,27,8,27,8.1,27C4.7,27,2,24.3,2,21s2.7-6,6-6
		c3.1,0,5.6,2.3,6,5.3C10.8,21.1,8.5,23.7,8.1,27z"/>
	<path d="M40,13c-4.1,0-7.4,3.1-7.9,7c0,0.3-0.1,0.7-0.1,1c0,0.3,0,0.7,0.1,1c0.4,3.3,2.8,5.9,5.9,6.7c0.3,0.1,0.6,0.1,1,0.2
		c-0.3,0-0.7-0.1-1-0.2c-0.4,3-2.9,5.3-6,5.3c-3.1,0-5.6-2.3-6-5.3c3.1-0.8,5.5-3.5,5.9-6.7c0-0.3,0.1-0.7,0.1-1c0-0.3,0-0.7-0.1-1
		c-0.5-3.9-3.9-7-7.9-7s-7.4,3.1-7.9,7c0,0,0,0,0,0c0,0.3-0.1,0.7-0.1,1c0,0.3,0,0.7,0.1,1c0,0,0,0,0,0c0.4,3.3,2.8,5.9,5.9,6.7
		c0.6,0.2,1.3,0.3,2,0.3c0-0.3,0.1-0.7,0.1-1c0-0.3,0-0.7-0.1-1c0,0,0,0,0,0c-0.4-3.3-2.8-5.9-5.9-6.7c0,0,0,0,0,0
		c0.4-3,2.9-5.3,6-5.3c3.1,0,5.6,2.3,6,5.3c-3.1,0.8-5.5,3.5-5.9,6.7c0,0.3-0.1,0.7-0.1,1c0,0.3,0,0.7,0.1,1c0.5,3.9,3.9,7,7.9,7
		s7.4-3.1,7.9-7c-0.1,0-0.2,0-0.2,0c0.1,0,0.2,0,0.2,0c0,0,0,0,0.1,0c4.4,0,8-3.6,8-8C48,16.6,44.4,13,40,13z M21.8,26.6
		c-1.8-0.7-3.2-2.3-3.6-4.2C20,23.1,21.4,24.7,21.8,26.6z M29.8,22.4c-0.5,1.9-1.8,3.5-3.6,4.2C26.6,24.7,28,23.1,29.8,22.4z
		 M34.2,22.4c1.8,0.7,3.2,2.3,3.6,4.2C36,25.9,34.6,24.3,34.2,22.4z M40,27C40,27,40,27,40,27c-0.5-3.3-2.8-5.9-6-6.7
		c0.4-3,2.9-5.3,6-5.3c3.3,0,6,2.7,6,6S43.3,27,40,27z"/>
</g>
</svg>
