<?xml version="1.0" encoding="utf-8"?>
<!-- Generator: Adobe Illustrator 20.0.0, SVG Export Plug-In . SVG Version: 6.00 Build 0)  -->
<svg version="1.1" id="Layer_1" xmlns="http://www.w3.org/2000/svg" xmlns:xlink="http://www.w3.org/1999/xlink" x="0px" y="0px"
	 viewBox="0 0 48 48" style="enable-background:new 0 0 48 48;" xml:space="preserve">
<g>
	<path d="M43,29.6c-0.2-1.1-1.2-1.8-2.3-1.6c-1.5,0.3-2.8,0.5-4,0.6c1.5-2.5,2.4-5.5,2.4-8.7c0-9.4-7.6-17-17-17
		c-1.8,0-3.5,0.3-5.2,0.8C16.6,3.3,16.1,3,15.5,3C14.7,3,14,3.7,14,4.5V5c-5.4,2.9-9,8.5-9,15c0,7.2,4.5,13.4,10.9,15.8l-4.5,6
		c-0.7,0.9-0.5,2.1,0.4,2.8c0.4,0.3,0.8,0.4,1.2,0.4c0.6,0,1.2-0.3,1.6-0.8l5.5-7.3C20.7,37,21.4,37,22,37c4.2,0,8-1.5,11-4
		c2.4-0.1,5.1-0.4,8.4-1C42.5,31.8,43.2,30.7,43,29.6z M37,20c0,3.3-1.1,6.4-3,8.9c-0.7,0-1.4,0.1-2,0.1c-1.2,0-2.2,0-3-0.1
		c-0.4,0-0.7-0.1-1-0.2c0,0-0.1,0-0.1,0c-0.3-0.1-0.6-0.1-0.8-0.2c0,0,0,0,0,0c0-0.1,0-0.1,0-0.2c0-0.2,0-0.3,0-0.3
		c0-0.8-0.7-2-1.4-2.6c-1.7-1.2-1.6-3.2-1.6-4c0-1.9,0.2-3.1-0.6-3.9c-0.2-0.2-0.4-0.3-0.6-0.5l-5.8-5V5.9C18.6,5.3,20.2,5,22,5
		C30.3,5,37,11.7,37,20z M14,7.3V12v0.5c0,0.4,0.1,0.7,0.4,1l3.8,4.5c-0.5,0.6-0.9,1.5-1,2.5l-8.9,5.5C7.4,24.1,7,22.1,7,20
		C7,14.7,9.8,10,14,7.3z M9.7,28.6l4-2.1l0,0l3.7-2c0.6,1.9,1.7,3.8,2.9,5c0,0,0,0,0,0l-2.8,4.2c-0.1,0.1-0.1,0.1-0.2,0.2l-0.3,0.4
		C14.1,33.1,11.5,31.1,9.7,28.6z M21.8,35l2.8-2.8c0,0,0,0,0,0l0,0c0,0,0,0,0,0c0.7,0.2,1.4,0.3,2.3,0.5c0,0,0,0,0,0l0,0
		c0.8,0.1,1.6,0.2,2.6,0.2C27.3,34.2,24.8,35,22,35C21.9,35,21.9,35,21.8,35z"/>
	<circle cx="24.5" cy="11.5" r="3.5"/>
</g>
</svg>
