<?xml version="1.0" encoding="utf-8"?>
<!-- Generator: Adobe Illustrator 20.0.0, SVG Export Plug-In . SVG Version: 6.00 Build 0)  -->
<svg version="1.1" id="Layer_1" xmlns="http://www.w3.org/2000/svg" xmlns:xlink="http://www.w3.org/1999/xlink" x="0px" y="0px"
	 viewBox="0 0 48 48" style="enable-background:new 0 0 48 48;" xml:space="preserve">
<g>
	<circle cx="17.5" cy="8.5" r="3.5"/>
	<path d="M24,37c-8.5,0-15,4-15,4h30C39,41,32.5,37,24,37z"/>
	<path d="M33,34c0,0-4.2-2-9-2c-5.1,0-9,2-9,2H33z"/>
	<path d="M12,24h4.1C16,24.3,16,24.6,16,24.9c0.2,0.7,0.8,1.1,1.5,1.1c0.3,0,0.5-0.1,0.8-0.2l3-1.8h13.3c0,0,0,0,0,0c0,0,0,0,0,0
		c0.4,0,0.7-0.1,1.1-0.2c1.4-0.5,2.2-1.7,2.3-3.1c0-0.5,0-0.9-0.2-1.4c-0.1-0.4-0.3-0.8-0.5-1.2c0-0.1-0.1-0.2-0.1-0.3
		c-0.2-0.4-0.4-0.7-0.6-1.1c0,0,0-0.1-0.1-0.1c-0.1-0.2-0.3-0.4-0.4-0.6l0,0c-3.5-4.9-9.7-6-11.1-6c-0.4,0-0.7,0-1,0
		c-0.1,0-0.1,0-0.2,0c-0.1,0-0.2,0-0.3,0.1c-1.9,0.3-2.6,1.2-2.6,2.8V13v4v3h-2.8l0,0H12c-1.1,0-2,0.9-2,2C10,23.1,10.9,24,12,24z
		 M25.6,17.5c1.6,0.5,3.5,1.3,4.6,2.5h0c0,0,0,0,0,0h-4l0,0h-2l0,0h0c0.1-0.8,0.2-1.8,0.4-2.7C24.9,17.4,25.2,17.4,25.6,17.5z"/>
</g>
</svg>
