<?xml version="1.0" encoding="utf-8"?>
<!-- Generator: Adobe Illustrator 19.1.0, SVG Export Plug-In . SVG Version: 6.00 Build 0)  -->
<svg version="1.1" id="Layer_1" xmlns="http://www.w3.org/2000/svg" xmlns:xlink="http://www.w3.org/1999/xlink" x="0px" y="0px"
	 viewBox="-107.9 -58 629.8 512" style="enable-background:new -107.9 -58 629.8 512;" xml:space="preserve">
<g transform="matrix(0.2576927,0,0,0.2576927,155.23992,508.16265)">
	<path d="M320.3-1420.2c-212,0-372.4,164.8-372.4,368.7c0,215.1,167.1,368.7,372.4,368.7s371.9-153.7,371.9-368.7
		C692.2-1255.4,532.4-1420.2,320.3-1420.2z M320.3-1225.3c91.6-0.7,166.6,77.4,166.6,174c0,95.9-75,174-166.6,174
		s-166.6-78.1-166.6-174C153.7-1147.9,228.8-1225.3,320.3-1225.3z"/>
	<path d="M1381.5-811.6c0,71.3-57.7,129.1-129.1,129.1s-129.1-57.7-129.1-129.1s57.7-129.1,129.1-129.1
		C1323.6-940.7,1381.5-883,1381.5-811.6z"/>
	<path d="M1005.7-707.1H802.8V-1623h202.8v915.8H1005.7z"/>
	<path d="M-420.3-1623h-190.5l-368.7,915.8h258.2l43.1-129.1h319.6l43.1,129.1h258L-420.3-1623z M-610.8-1026.7l95.3-307.3
		l95.3,307.3H-610.8z"/>
</g>
</svg>
