<?xml version="1.0" encoding="utf-8"?>
<!-- Generator: Adobe Illustrator 19.2.1, SVG Export Plug-In . SVG Version: 6.00 Build 0)  -->
<svg version="1.1" id="Layer_1" xmlns="http://www.w3.org/2000/svg" xmlns:xlink="http://www.w3.org/1999/xlink" x="0px" y="0px"
	 viewBox="0 0 512 512" style="enable-background:new 0 0 512 512;" xml:space="preserve">
<g>
	<rect y="144" width="512" height="32"/>
	<rect y="240" width="512" height="32"/>
	<rect y="336" width="512" height="32"/>
</g>
<path d="M200.7,443.5l0.6,0.8l48.7,56.1c1.6,1.9,4.1,3.1,6.9,3.1s5.2-1.2,6.9-3.1l48.7-56l0.8-0.9c0.6-0.9,1-2,1-3.1
	c0-3.1-2.7-5.7-5.9-5.7l0,0H205.6l0,0c-3.3,0-5.9,2.5-5.9,5.7C199.7,441.5,200.1,442.6,200.7,443.5z"/>
<path d="M313.3,70.1l-0.6-0.8l-48.7-56.1c-1.6-1.9-4.1-3.1-6.9-3.1c-2.8,0-5.2,1.2-6.9,3.1l-48.7,56l-0.8,0.9c-0.6,0.9-1,2-1,3.1
	c0,3.1,2.7,5.7,5.9,5.7l0,0l102.8,0l0,0c3.3,0,5.9-2.5,5.9-5.7C314.3,72.1,313.9,71,313.3,70.1z"/>
</svg>
