<?xml version="1.0" encoding="UTF-8"?>
<svg width="96px" height="96px" viewBox="0 0 96 96" version="1.1" xmlns="http://www.w3.org/2000/svg" xmlns:xlink="http://www.w3.org/1999/xlink">
    <!-- Generator: Sketch 42 (36781) - http://www.bohemiancoding.com/sketch -->
    <title>webcam-hide</title>
    <desc>Created with Sketch.</desc>
    <defs></defs>
    <g id="Page-1" stroke="none" stroke-width="1" fill="none" fill-rule="evenodd">
        <g id="webcam-hide" fill="#221F20">
            <path d="M6.16488276,30.0440522 C5.96322759,30.9635304 6.00771034,31.9480522 6.00771034,32.9030087 C5.99881379,44.6108348 5.99881379,56.3186609 6.00177931,68.0294435 C6.00474483,71.6807478 8.34750345,74.078487 11.9921241,74.0873565 C19.5245379,74.1110087 27.0569517,74.0962261 34.592331,74.0962261 C42.1988828,74.1110087 49.2283734,74.1228348 56.8378906,74.1050957 C59.2844423,74.0991826 13.7988281,25.6684 13.7988281,25.6684 C11.3107592,25.674313 12.7928138,25.6831826 11.7192966,25.6950087 C8.92281379,25.7245739 6.71943448,27.4807478 6.16488276,30.0440522 Z" id="Fill-1"></path>
            <path d="M56.8126552,25.6515478 C52.397,25.6604174 44.2208913,25.6574609 35.2739258,25.6574609 L63.3516207,55.5927734 C63.3516207,48.0979908 63.3486552,39.5738087 63.3486552,32.0790261 C63.3486552,27.9073739 61.0118276,25.6456348 56.8126552,25.6515478 Z" id="Fill-3"></path>
            <path d="M90.0261517,49.8829043 C90.0261517,43.6949043 90.0291172,37.5069043 90.0231862,31.3218609 C90.0231862,29.3971652 88.7302207,28.5486435 87.1407034,29.4444696 C81.3282897,32.7232522 75.5247724,36.0227304 69.7064276,39.289687 C68.7633931,39.8189043 68.3541517,40.5225565 68.3600828,41.6105565 C68.3927034,47.1717739 68.3897379,52.7329913 68.3660138,58.2942087 C68.3630483,59.2964696 68.7604276,59.9498609 69.6233931,60.4347304 C75.4061517,63.6928174 81.1740828,66.977513 86.9568414,70.2356 C88.7391172,71.2408174 90.0320828,70.4869043 90.0350483,68.4439478 C90.0469103,62.2559478 90.0409793,56.0709043 90.0409793,49.8829043 L90.0261517,49.8829043" id="Fill-5"></path>
            <polygon id="Fill-7" points="72.9585308 82.7256831 11.7518897 16.127113 15.901269 11.999113 77.1079102 78.5947266"></polygon>
        </g>
    </g>
</svg>