<?xml version="1.0" encoding="utf-8"?>
<!-- Generator: Adobe Illustrator 19.2.1, SVG Export Plug-In . SVG Version: 6.00 Build 0)  -->
<svg version="1.1" id="Layer_1" xmlns="http://www.w3.org/2000/svg" xmlns:xlink="http://www.w3.org/1999/xlink" x="0px" y="0px"
	 viewBox="0 0 851.8 512" style="enable-background:new 0 0 851.8 512;" xml:space="preserve">
<g id="OJZzJC.tif_1_">
	<g>
		<path d="M628.6,159.2c-18.2-8.7-36.4-17.4-55-26.3c4-28,31.2-38.8,60.5-25.9c28.3,12.5,52,32.5,70.9,56.3
			c11.8,15,17.5,34.8,26.8,54.1c11.3,4.6,26.1,10.8,41.1,16.7c9.2,3.6,12.1,11.1,11,19.6c-3.4,27.1-7.6,61.2-13.3,87.9
			c-6.2,29.2-13.8,45.3-45.1,45.3c-12.9,0-20.9-0.9-36.2-1.6c16.9-32.8,24-64.6,29.5-100.5c-6.6,24.2-16.6,46.8-26.6,65.2
			c-14.6,26.8-30.6,31.4-57.3,34.7c-43.6,5.3-86.3-2.6-128.6-10.1c-19.7-3.5-39.7-9.5-54.7-26.4c-12.8-14.3-14.9-31.4-14.5-47.7
			c0.9-41.6,9.1-82.4,24.8-121.2c11.3-28,37.9-43,67.8-40.4c30,2.6,55.4,12.5,83,23.7c3.6,1.5,6.1,2.3,10.4,2.3
			C626,164.9,628.6,163.1,628.6,159.2z"/>
	</g>
</g>
<g id="OJZzJC.tif_2_">
	<g>
		<path d="M223.2,159.2c18.2-8.7,36.4-17.4,55-26.3c-4-28-31.2-38.8-60.5-25.9c-28.3,12.5-52,32.5-70.9,56.3
			c-11.8,15-17.5,34.8-26.8,54.1c-11.3,4.6-26.1,10.8-41.1,16.7c-9.2,3.6-12.1,11.1-11,19.6c3.4,27.1,7.6,61.2,13.3,87.9
			c6.2,29.2,13.8,45.3,45.1,45.3c12.9,0,20.9-0.9,36.2-1.6c-16.9-32.8-24-64.6-29.5-100.5c6.6,24.2,16.6,46.8,26.6,65.2
			c14.6,26.8,30.6,31.4,57.3,34.7c43.6,5.3,86.3-2.6,128.6-10.1c19.7-3.5,39.7-9.5,54.7-26.4c12.8-14.3,14.9-31.4,14.5-47.7
			c-0.9-41.6-9.1-82.4-24.8-121.2c-11.3-28-37.9-43-67.8-40.4c-30,2.6-55.4,12.5-83,23.7c-3.6,1.5-6.1,2.3-10.4,2.3
			C225.8,164.9,223.2,163.1,223.2,159.2z"/>
	</g>
</g>
</svg>
