<?xml version="1.0" encoding="utf-8"?>
<!-- Generator: Adobe Illustrator 19.1.0, SVG Export Plug-In . SVG Version: 6.00 Build 0)  -->
<svg version="1.1" id="Layer_1" xmlns="http://www.w3.org/2000/svg" xmlns:xlink="http://www.w3.org/1999/xlink" x="0px" y="0px"
	 viewBox="-49 -58 512 512" style="enable-background:new -49 -58 512 512;" xml:space="preserve">
<path d="M291.2,29h-56.3v112h56.3V29z M319.1,141c0,7.7-2.7,14.2-8.2,19.7c-5.5,5.5-12,8.2-19.7,8.2H122.9c-7.7,0-14.2-2.7-19.7-8.2
	c-5.5-5.5-8.2-12-8.2-19.7V1.1h224V141z M351.8-26.8H39.3c-15.3,0-28.5,5.5-39.6,16.4C-11.5,0.6-17,13.7-17,29v335.5
	c0,15.7,5.6,29,16.7,39.9c11.1,10.9,24.3,16.4,39.6,16.4h335.5c15.3,0,28.5-5.5,39.6-16.4c11.1-10.9,16.7-24.2,16.7-39.9V60.7
	L351.8-26.8z"/>
</svg>
