<?xml version="1.0" encoding="utf-8"?>
<!-- Generator: Adobe Illustrator 20.0.0, SVG Export Plug-In . SVG Version: 6.00 Build 0)  -->
<svg version="1.1" id="Layer_1" xmlns="http://www.w3.org/2000/svg" xmlns:xlink="http://www.w3.org/1999/xlink" x="0px" y="0px"
	 viewBox="0 0 512 512" style="enable-background:new 0 0 512 512;" xml:space="preserve">
<rect x="238.4" y="269.7" width="28.6" height="64.5"/>
<rect x="238.4" y="348.6" width="28.6" height="21.5"/>
<path d="M374.2,212.9c-28.6-30-66.6-48.2-107.6-51.5V65.1l83.9,75.4c2.6,2.3,5.9,3.6,9.3,3.6c3.9,0,7.7-1.7,10.4-4.6
	c5.1-5.7,4.7-14.5-1-19.7l-107-96.2l-0.6-0.6l-0.2-0.1c-0.1-0.1-0.2-0.2-0.4-0.3c0,0-0.1,0-0.1-0.1l-0.3-0.3l-0.6-0.3
	c-0.1-0.1-0.2-0.1-0.3-0.2l-1.1-1.1h-1.1c-0.3-0.1-0.6-0.2-1-0.3c-0.4-0.1-0.8-0.2-1.2-0.2c-0.3-0.1-0.8-0.1-1.3-0.1h-2.6
	c-0.6,0-1,0.1-1.3,0.1c-0.2,0-0.3,0-0.4,0.1H249l-0.6,0.3h-0.5l-1.8,0.9c-0.3,0.1-0.5,0.3-0.7,0.4l-0.2,0.1h-0.4l-108.8,97.6
	c-2.8,2.5-4.4,5.9-4.6,9.6c-0.2,3.7,1.1,7.3,3.6,10.1c2.7,2.9,6.4,4.6,10.4,4.6c3.4,0,6.7-1.3,9.3-3.6l83.9-75.4V161
	C152.1,168.5,85,241.1,85,328.5c0,92.5,75.3,167.8,167.8,167.8c92.5,0,167.8-75.3,167.8-167.8C420.5,285.3,404,244.3,374.2,212.9z
	 M346.1,391.6H159.4c-2.6,0-4.9-1.4-6.2-3.5c-1.3-2.3-0.4-5.8,0.9-8l92.5-156.4c1.3-2.3,3.6-3.9,6.3-3.9c2.6,0,5,1.6,6.3,3.9
	L351.6,380c1.3,2.3,2.1,5.9,0.8,8C351.1,390.2,348.7,391.6,346.1,391.6z"/>
</svg>
