<?xml version="1.0" encoding="utf-8"?>
<!-- Generator: Adobe Illustrator 19.2.1, SVG Export Plug-In . SVG Version: 6.00 Build 0)  -->
<svg version="1.1" id="Layer_1" xmlns="http://www.w3.org/2000/svg" xmlns:xlink="http://www.w3.org/1999/xlink" x="0px" y="0px"
	 viewBox="0 0 423.2 409.6" style="enable-background:new 0 0 423.2 409.6;" xml:space="preserve">
<title>checkmark-box-checked</title>
<path d="M347.2,396.6H76c-10,0-18.2-8.1-18.2-18.2V117.2C57.9,107.1,66,99,76,99h271.2c10,0,18.2,8.1,18.2,18.2l0,0v261.3
	C365.3,388.5,357.2,396.6,347.2,396.6z M322.5,172.5l-29.2-23c-0.9-0.8-2.1-1.2-3.3-1.2c-1.2,0-2.5,0.5-3.3,1.3L180.6,285.9
	c0,0-41.7-40.1-42.9-41.3s-2.7-3.2-5-3.2s-3.4,1.7-4.7,2.9c-0.9,1-15.7,16.6-23.1,24.4c-0.4,0.4-0.7,0.8-1.1,1.1
	c-0.7,0.9-1.1,1.9-1.1,3s0.4,2.2,1.1,3.1l1.5,1.4c0,0,74,71.1,75.3,72.3c1.2,1.1,2.7,2.7,4.9,2.7s3.9-2.3,4.9-3.3l132.3-170
	c0.7-0.9,1.1-1.9,1.1-3.1C323.7,174.7,323.3,173.4,322.5,172.5z"/>
</svg>
