<?xml version="1.0" encoding="utf-8"?>
<!-- Generator: Adobe Illustrator 19.1.0, SVG Export Plug-In . SVG Version: 6.00 Build 0)  -->
<svg version="1.1" id="Layer_1" xmlns="http://www.w3.org/2000/svg" xmlns:xlink="http://www.w3.org/1999/xlink" x="0px" y="0px"
	 viewBox="-49 -58 512 512" style="enable-background:new -49 -58 512 512;" xml:space="preserve">
<path d="M104.9,382.5h79.6v-55h47.8v55h79.5V88.7H104.9V382.5z M248.2,119.5h34.5V154h-34.5V119.5z M248.2,189h34.5v34.5h-34.5V189z
	 M248.2,258.5h34.5V293h-34.5V258.5z M191.1,119.5h34.5V154h-34.5V119.5z M191.1,189h34.5v34.5h-34.5V189z M191.1,258.5h34.5V293
	h-34.5V258.5z M134.1,119.5h34.5V154h-34.5V119.5z M134.1,189h34.5v34.5h-34.5V189z M134.1,258.5h34.5V293h-34.5V258.5z"/>
<path d="M-11.9,382.5h93.2V161.9h-93.2V382.5z M17.5,189h34.5v34.5H17.5V189z M17.5,258.5h34.5V293H17.5V258.5z"/>
<path d="M336.1,161.9v220.6h93.2V161.9H336.1z M399.9,293h-34.5v-34.5h34.5V293z M399.9,223.5h-34.5V189h34.5V223.5z"/>
<rect x="134" y="52.6" width="148.6" height="23.7"/>
<rect x="165.2" y="16.5" width="86.2" height="23.7"/>
</svg>
