<?xml version="1.0" encoding="utf-8"?>
<!-- Generator: Adobe Illustrator 19.2.1, SVG Export Plug-In . SVG Version: 6.00 Build 0)  -->
<svg version="1.1" id="Layer_1" xmlns="http://www.w3.org/2000/svg" xmlns:xlink="http://www.w3.org/1999/xlink" x="0px" y="0px"
	 viewBox="0 0 512 512" style="enable-background:new 0 0 512 512;" xml:space="preserve">
<path d="M22.9,364.8c1.3-5.5,2.4-11.1,4.1-16.6c4-12.8,11.1-23.8,20.6-33.2c32.4-32.4,64.9-64.9,97.3-97.3c0.5-0.5,1.1-1,1.4-1.2
	c8.4,8.4,16.7,16.7,25.4,25.4c-0.8,0.8-1.9,2.1-3.2,3.4c-31.3,31.3-62.7,62.7-94,94c-11.6,11.6-17.2,25.2-14.4,41.7
	c2.8,16.6,12.3,28.5,27.7,34.6c15.7,6.3,31,4.3,44.7-6.2c2.9-2.2,5.7-4.8,8.3-7.4c36.3-36.2,72.5-72.5,108.8-108.8
	c1.8-1.9,3.6-3.8,6-6.3c-13.2-4-24.7-9.8-34.7-18.7c-10-8.9-16.6-20.3-23.1-32.4c10.4-5.8,20.7-11.6,31.5-17.7
	c7.7,15.4,16.9,29.1,35.5,33.4c-3.3-16.8-12.4-28.5-27.8-35c-15.5-6.5-30.3-2.8-45.2,3.8c-4.1-11.5-8.1-22.5-12-33.5
	c43.6-23.5,108.8-3.8,121,58.4c1.3-0.6,2.5-1.2,3.7-1.8c44.5-25,89.1-49.9,133.6-75c16.1-9.1,24.8-23,24.7-41.7
	c-0.2-32.4-35.3-54.6-64.3-40c-21,10.5-41.2,22.7-61.7,34.2c-30.3,16.9-60.5,33.9-90.7,50.9c-1.3,0.7-2.7,1.5-4.5,2.4
	c-5.8-10.3-11.6-20.6-17.5-31.1c1.2-0.8,2.2-1.6,3.4-2.2c49.4-27.7,98.7-55.7,148.2-83.1c30.6-16.9,61.1-16.1,89.6,4.4
	c25.2,18.1,36.5,43.6,33.1,74.7c-3.1,28.4-17.9,49.3-42.6,63.2c-46.1,26-92.3,51.9-138.5,77.6c-5.5,3.1-11.6,5-17.3,7.7
	c-1.7,0.8-3.7,2.4-4.4,4.1c-4.8,11.3-11.9,20.9-20.5,29.6c-37,36.9-73.9,73.8-110.8,110.7c-17.4,17.5-38.3,26.1-63.1,25.3
	c-37.9-1.2-71.7-31.4-76.9-69c-0.2-1.5-0.7-3-1-4.5C22.9,376,22.9,370.4,22.9,364.8z"/>
<path d="M66,202.7c-4.7,0-8.2-2.8-8.8-7c-0.7-4.7,1.7-8.4,6.8-9.5c11.2-2.3,22.5-4.3,33.7-6.3c20.1-3.6,40.2-7.2,60.3-10.8
	c5.6-1,9.8,1.5,10.8,6.2c1,4.9-1.7,9-7.2,10c-31.5,5.8-63,11.5-94.5,17.1C66.7,202.7,66.2,202.7,66,202.7z"/>
<path d="M170.3,49.3c0-4.9,2.9-8.3,7.1-8.9c4.3-0.6,8.2,1.8,9.2,6.6c1.9,9.1,3.4,18.2,5.1,27.4c4,22.4,8.1,44.7,12.1,67.1
	c1,5.5-1.7,9.8-6.4,10.6c-4.9,0.9-8.9-1.8-9.9-7.4c-5.7-31.2-11.3-62.4-16.9-93.6C170.4,50.4,170.3,49.6,170.3,49.3z"/>
</svg>
