<?xml version="1.0" encoding="UTF-8"?>
<svg width="96px" height="96px" viewBox="0 0 96 96" version="1.1" xmlns="http://www.w3.org/2000/svg" xmlns:xlink="http://www.w3.org/1999/xlink">
    <!-- Generator: Sketch 42 (36781) - http://www.bohemiancoding.com/sketch -->
    <title>face-show</title>
    <desc>Created with Sketch.</desc>
    <defs>
        <polygon id="path-1" points="82.4600926 0.231726162 82.4600926 82.2951632 0.391525053 82.2951632 0.391525053 0.231726162 82.4600926 0.231726162"></polygon>
    </defs>
    <g id="Page-1" stroke="none" stroke-width="1" fill="none" fill-rule="evenodd">
        <g id="face-show">
            <g id="Group-3" transform="translate(7.871579, 4.896460)">
                <mask id="mask-2" fill="white">
                    <use xlink:href="#path-1"></use>
                </mask>
                <g id="Clip-2"></g>
                <path d="M41.4267082,0.231726162 C34.8733103,0.231726162 30.0287124,2.12030937 26.8929145,5.89447804 C23.7601145,9.67164445 22.3361145,13.1969998 22.6209145,16.4735418 C22.9057145,18.8957247 23.1905145,21.2459615 23.4753145,23.5272501 C23.4753145,23.8120365 23.2954408,24.5225035 22.9386914,25.661649 C22.5849398,26.8037921 22.6209145,28.0148836 23.0466156,29.2949233 C23.6162156,31.8609983 24.1858156,33.5697164 24.7554156,34.4240755 C25.3280135,35.2784346 25.7537145,36.4205777 26.0385145,37.8445095 C26.7520135,41.9754106 27.7503124,44.8622449 29.0304135,46.499017 C30.3135124,48.1387869 30.9550619,49.811532 30.9550619,51.5202501 L30.9550619,52.8032876 C30.9550619,55.9389353 30.6702619,57.8245208 30.1006619,58.4660395 C29.5310619,59.1075582 27.6064135,59.9978903 24.3297145,61.1370358 C21.9074156,61.9943926 19.8418661,62.7048596 18.1300682,63.2744323 C7.16077137,67.4083311 1.389824,70.8977134 0.820224,73.745577 C0.535424,75.7420792 0.391525053,78.5899428 0.391525053,82.2951632 L41.4267082,82.2951632 L82.4618914,82.2951632 L82.0331924,73.745577 C81.4635924,70.8977134 75.6926451,67.4083311 64.7233482,63.2744323 C64.2946493,63.133538 63.9378998,62.989646 63.6530998,62.8487516 C56.9558029,60.4265687 53.4662535,59.0715852 53.1814535,58.7867989 C52.3270535,58.2172262 51.8983545,55.7950433 51.8983545,51.5202501 C51.8983545,49.811532 52.539904,48.1387869 53.8230029,46.499017 C55.103104,44.8622449 56.1014029,41.9754106 56.8149019,37.8445095 C57.0997019,36.4205777 57.5254029,35.2784346 58.0980008,34.4240755 C58.6676008,33.5697164 59.2372008,31.8609983 59.8068008,29.2949233 C60.2325019,28.0148836 60.2684766,26.8037921 59.9117272,25.661649 C59.5579756,24.5225035 59.3781019,23.8120365 59.3781019,23.5272501 C59.6629019,21.2459615 59.9477019,18.8957247 60.2325019,16.4735418 C60.5173019,13.1969998 59.0933019,9.67164445 55.9605019,5.89447804 C52.824704,2.12030937 47.9801061,0.231726162 41.4267082,0.231726162 M41.4267082,4.72835285 C46.6220598,4.72835285 50.2435166,6.05036109 52.5009314,8.76632361 C54.8362914,11.5812119 55.9305229,14.0423656 55.7686366,15.9489353 C55.4838366,18.3591272 55.1990366,20.7003708 54.9172345,22.9666707 L54.8812598,23.2454615 L54.8812598,23.5272501 C54.8812598,24.3576272 55.0671293,25.2359683 55.6217398,27.0046415 C55.6487208,27.0915762 55.7236682,27.3283986 55.5407966,27.8739893 L55.4658493,28.0928251 L55.4178829,28.3206542 C54.7853272,31.1685178 54.3536303,31.9299466 54.3536303,31.9299466 L54.3536303,31.9299466 C53.4482661,33.2909256 52.8097145,34.9366909 52.3840135,37.080083 C51.5925693,41.6666422 50.6482324,43.2584481 50.2824893,43.729095 C48.3698324,46.1692644 47.4015124,48.7922966 47.4015124,51.5202501 C47.4015124,56.6464046 47.8901693,60.2616924 50.2285272,62.1892464 C50.9869945,62.8937179 52.1291924,63.4602929 61.9143208,67.000637 C62.3010493,67.180502 62.7297482,67.3483761 63.2124093,67.5102546 C74.1247461,71.6291647 76.9247798,74.0483499 77.5843166,74.7977876 L77.7342114,77.7985365 L41.4267082,77.7985365 L4.98130189,77.7985365 C5.035264,76.6683843 5.11021137,75.6881197 5.20914189,74.8697337 C5.73976926,74.2192217 8.34194189,71.7730567 19.6350114,67.5132524 C21.3498072,66.9406819 23.4123587,66.2302149 25.8076766,65.3848491 C30.8201566,63.6401579 32.4540093,62.5879473 33.4613019,61.4547974 C34.8942956,59.8420073 35.451904,57.4168266 35.451904,52.8032876 L35.451904,51.5202501 C35.451904,48.7922966 34.483584,46.1692644 32.5709272,43.729095 C32.205184,43.2584481 31.2608472,41.6666422 30.4484177,36.9631707 C30.0437019,34.9366909 29.4051503,33.2909256 28.5177735,31.9629218 C28.4997861,31.9329443 28.0710872,31.1685178 27.4355335,28.3206542 L27.3875672,28.0928251 L27.3126198,27.8739893 C27.1297482,27.3283986 27.2046956,27.0915762 27.2316766,27.0046415 C27.7862872,25.2359683 27.9721566,24.3576272 27.9721566,23.5272501 L27.9721566,23.2454615 L27.9361819,22.9666707 C27.6543798,20.7003708 27.3695798,18.3591272 27.0997693,16.0838341 C26.9228935,14.0423656 28.0171251,11.5812119 30.3524851,8.76632361 C32.6098998,6.05036109 36.2313566,4.72835285 41.4267082,4.72835285" id="Fill-1" fill="#221F20" mask="url(#mask-2)"></path>
            </g>
        </g>
    </g>
</svg>