<?xml version="1.0" encoding="utf-8"?>
<!-- Generator: Adobe Illustrator 20.0.0, SVG Export Plug-In . SVG Version: 6.00 Build 0)  -->
<svg version="1.1" id="Layer_1" xmlns="http://www.w3.org/2000/svg" xmlns:xlink="http://www.w3.org/1999/xlink" x="0px" y="0px"
	 viewBox="0 0 512 512" style="enable-background:new 0 0 512 512;" xml:space="preserve">
<path d="M105.9,244c14.9,0,28.5,0,43.2,0c-21.6,28.8-42.6,56.9-64.1,85.5C63.7,301,42.7,273,21.1,244.2c14.5,0,28.2,0,42.1,0
	c0.6-8.3,1-16.1,1.8-23.8c5.4-49.7,26.1-92.1,61.3-127.4c29.8-29.9,65.3-50.2,106.9-57.7C320,19.4,392,46,446.9,115.3
	c31.7,40,45,86.6,43.2,137.5c-3.5,98.9-76.4,182.3-171,200.1c-73.6,13.8-138-5.6-192.4-57.4c-6.4-6.1-8.3-13.5-5.9-21.9
	c2.5-8.7,8.7-13.6,17.5-15c7.3-1.2,13.4,1.5,18.5,6.6c17.9,17.5,38.4,30.6,62,39.2c98.8,36,207.8-26.5,226-129.6
	c16-90.7-41.5-177.3-131-197.2C219.9,56.5,126.6,118.2,109.3,213C107.5,222.9,107,233.1,105.9,244z"/>
<path d="M277,234.2c0-32.2,0-64.3,0-96.5c0-12.2-8.9-21.5-20.7-21.8c-12.1-0.3-22.1,8.8-22.1,21c-0.2,42.8-0.1,85.6,0,128.4
	c0,11.8,9.1,21.2,20.8,21.3c28.8,0.3,57.6,0.3,86.5,0c11.9-0.1,21.2-10.2,20.9-21.8c-0.3-12.1-9.6-21-22-21c-10,0-20,0-30,0
	c-11,0-21.9,0-33.4,0C277,240.2,277,237.2,277,234.2z"/>
</svg>
