<?xml version="1.0" encoding="utf-8"?>
<!-- Generator: Adobe Illustrator 21.1.0, SVG Export Plug-In . SVG Version: 6.00 Build 0)  -->
<svg version="1.1" id="Layer_1" xmlns="http://www.w3.org/2000/svg" xmlns:xlink="http://www.w3.org/1999/xlink" x="0px" y="0px"
	 viewBox="0 0 717.9 512" style="enable-background:new 0 0 717.9 512;" xml:space="preserve">
<path d="M555.1,334.8C566.4,338.7,543.9,330.9,555.1,334.8L555.1,334.8z"/>
<path d="M349.2,322.5c0.6-0.3,1.2-0.6,1.6-0.8c-0.3,0.1-0.6,0.3-0.8,0.4C349.7,322.2,349.5,322.3,349.2,322.5z"/>
<g>
	<path d="M264.7,171.7c-1.4-2.6-6.2-7.7-9.1-8.7c-3.9-0.6-1.6,2.9-1.6,4.4c-1,0.8-2.6,1.6-3.3,2.6c-0.5,0.4,1.1,4,4.1,2.8
		c3-1.1,1.3,1.2,3.4,5.8s6.2,4.7,8.1,3.3C268.7,180.1,266,174.1,264.7,171.7z"/>
	<path d="M276.7,201L276.7,201L276.7,201z"/>
	<path d="M314.9,218.2C315.2,218.2,313.7,218,314.9,218.2L314.9,218.2z"/>
	<path d="M198.9,111c-80.3,0-145.5,65.2-145.5,145.5c0,80.4,65.2,145.5,145.5,145.5c80.4,0,145.5-65.1,145.5-145.5
		C344.4,176.2,279.2,111,198.9,111z M145.2,369.1c-3.6-2-6.1-4.9-7.1-10.3c-2.6-13.5-0.2-20.8,11.7-28.7c5.6-3.7,6.5-8.2,11-12.7
		c1.1-1.4,4-6.7,6-7c2.4-0.5,8.9-1.6,10.2-4.2c2.5-3.3,7.9-17.8,10.3-19.2c3.9-2.5,9.4-10.4,5.4-15c-4.6-5.6-10.9-5.7-16.8-8.6
		c-5.2-2.6-7.5-14.5-11.5-18.6c-7.7-7.9-19.5-12.5-29.2-17.3c-5.3-2.1-4.8-2.8-8.9,1.4c-5.3,5.3-13.1-1.3-13.8-6.8
		c-0.1-1.8-2.1-11.8-0.9-12.6c11.7-7.3-5.4-5.6-6.8-9c-3.5-9.7,8.4-17.4,16.5-18.3c9-1.1,10.9,14.2,14.4,12.9
		c1.7-0.8,1.7-8.1,1.9-9.6c0.8-5.2,2.3-6,7.4-7.9c5.9-2.2,10.4-4.9,16.7-6c7.1-2.1,13.2-1,18.7-5.6c2.5-1.9,4.4,1,6.8,1.6
		c5.2,1,6.3-7.2,6.3-10.3c0-3,0.8-5.6-3.1-8.8c-5.1-3.9-12.4-0.6-16.4,3.5c-4.9,4.6-10.6,4.3-9-3.6c0.4-2.9,6.6-6.2,9.1-7.8
		c2.4-1.4,3.8,1.6,6.8,0.9c4.3-1,5.9,3.1,10.9,3.1c2.1-0.5,9.6-4.5,5.6-12.6c0.6,0,1.2,0,1.8,0c1.2,0,2.4,0,3.6,0.1
		c1.8,5.8-3.9,10.7-1,17.9c5.7,13.9,10.4,2,16-4.5c1.9-1.9,3-1.4,6-2c1.9-0.3,4.6-6,5.5-7.8c13,3.2,25.4,8.5,36.7,15.8
		c-4.8,0.5-6.1-0.9-6,4.8c0,2.2,0.2,8.7,3.4,9.2c5.4,0.6,4.4,4.4,9.5,5.1c4.8,0.6,1.8,4.9,3.8,9.1c2.2,6.6-12.9,8.6-15.8,9.6
		c-8.9,3,4.1,15.9,9.9,14.5c1.8-0.5,7.9-1.2,8.4-3.3c0-0.2-1.2-7.2-0.6-7.9c1-1.3,3.3-1.9,7,0.2c8.7,4.9,13.1,16.7,23.3,19
		c1.4,0.3,3.8-0.1,5.5,1.3c1.4,2,5.1,5.5,0.7,5.5c-5.9-1.3-9,0.6-13.8-3.2c-5-3.9-8.1-7.1-14.8-7.2c-5.7-0.1-10.8-2.5-16.7-1.5
		c-3.3,0.5-6.5,1.8-9.7,2.8c-3,1-3.6,6.3-6.6,7c-12.6,3-9.9,15-12.2,24.6c-0.9,3.7-3.9,13.6-0.6,16.9c5.9,5.8,12.9,13.7,21.5,14.9
		c4.7,0.7,14.9-3,18.1,1.8c1.3,2.7,4.8-2,5.8,0.4c2.4,7.1-2.8,11.8-2.8,18.5c-0.1,9.9,6,13.4-2.1,22.2c-8.9,8.8-2.8,20-7.7,30.5
		c-2.6,5.4-3.1,12.9-7.1,15.4c-8.7,5.5-18,10-27.7,13.2c-17.3,5.7-35.8,7.6-53.9,5.5c-9.5-1.1-18.9-3.3-27.9-6.5
		c-2.4-0.9-4.7-1.6-6.8-2.4C148.3,370.6,146.8,369.9,145.2,369.1z M118.1,351.5c-0.3-0.3-0.6-0.5-0.9-0.8c-2.2-1.9-4.4-4-6.5-6.1
		c-2.2-2.2-4.3-4.5-6.3-6.8c0,0,0-0.1-0.1-0.1c-0.4-0.5-0.8-1-1.2-1.5c-33.6-40.6-38.5-100-10.3-145.4c3.9,3.9-2.7,11.7,4.9,16.9
		c3.3,2.3,6.5,1.4,5.8,5.7c-0.6,4.2,3.5,4.1,4.1,7.8c1.8,8.1,12.5,12.1,6.4,21.2c-5.9,8.2-11,17.4-6.6,27.8
		c1.5,3.8,5.1,7.7,7.9,10.6c5.1,5.2,4.8,2.1,4.8,8.6c-0.1,2.8,3.4,5.8,3.1,7.6c-0.7,5.2-1.9,10.3-2.5,15.5
		c-1.2,18.6-0.1,36.8,13.8,50.7c-5.2-3.1-10.2-6.7-14.9-10.6C119.1,352.4,118.6,352,118.1,351.5z"/>
</g>
<g>
	<path d="M386,172.1c8.1,4.3,120.5,65.5,124.7,67.7c4.2,2.2,8.5,3.2,15.1,3.2s10.9-1,15.1-3.2c4.2-2.2,116.6-63.5,124.7-67.7
		c3-1.5,8.1-4.3,9.2-7.5c1.9-5.6-0.1-7.7-8.3-7.7H525.7H385.1c-8.2,0-10.2,2.2-8.3,7.7C377.9,167.8,383,170.5,386,172.1z"/>
	<path d="M671.9,175.4c-6,3.1-60.2,41.6-96,64.8l60.5,68c1.5,1.5,2.1,3.2,1.3,4.1c-0.9,0.8-2.8,0.4-4.3-1l-72.5-61.2
		c-11,7.1-18.7,11.9-20,12.7c-5.7,2.9-9.6,3.2-15.1,3.2s-9.4-0.4-15.1-3.2c-1.4-0.7-9-5.6-20-12.7l-72.5,61.2
		c-1.5,1.5-3.5,1.9-4.3,1c-0.9-0.8-0.2-2.6,1.3-4.1l60.4-68c-35.8-23.2-90.6-61.7-96.6-64.8c-6.5-3.3-6.8,0.6-6.8,3.6
		c0,3,0,150.8,0,150.8c0,6.8,10.1,15.4,17.3,15.4h136.5h136.5c7.2,0,15.8-8.6,15.8-15.4c0,0,0-147.9,0-150.8
		C678,175.9,678.4,172.1,671.9,175.4z"/>
</g>
</svg>
