<?xml version="1.0" encoding="utf-8"?>
<!-- Generator: Adobe Illustrator 19.2.1, SVG Export Plug-In . SVG Version: 6.00 Build 0)  -->
<svg version="1.1" id="Layer_1" xmlns="http://www.w3.org/2000/svg" xmlns:xlink="http://www.w3.org/1999/xlink" x="0px" y="0px"
	 viewBox="0 0 512 512" style="enable-background:new 0 0 512 512;" xml:space="preserve">
<path d="M408.5,53.2c-5-7.8-8.1-12.1-8.1-12.1c-5.3-8.1-11.6-6.1-21.4-4.6l-52.6,9.8c-6.6,1-6.6,1-10.8-3.7
	c-14.3-16-20.3-26.1-29.4-23.2l-98.1,31.4c-9,2.9-8.1,14.5-10.3,36c-0.8,6.1-0.8,6.1-6.7,9.3l-48.6,22.6
	c-8.8,4.5-15.1,7.5-14.8,17.1c0,0,0.1,4.3,0.4,13.5c0.6,12.3-1.1,11.5,9.4,8.1l288-92.1C416,62,415.2,63.5,408.5,53.2z M379.4,176
	H132.6c-16.6,0-17.4,2.2-16.4,14.7l18.7,242.6c1.6,12.3,2.8,14.8,17.5,14.8h207.2c14.7,0,15.9-2.5,17.5-14.8l18.7-242.6
	C396.8,178.1,396,176,379.4,176z"/>
</svg>
