<?xml version="1.0" encoding="utf-8"?>
<!-- Generator: Adobe Illustrator 20.0.0, SVG Export Plug-In . SVG Version: 6.00 Build 0)  -->
<svg version="1.1" id="Layer_1" xmlns="http://www.w3.org/2000/svg" xmlns:xlink="http://www.w3.org/1999/xlink" x="0px" y="0px"
	 viewBox="0 0 512 512" style="enable-background:new 0 0 512 512;" xml:space="preserve">
<path d="M256,32C132.3,32,32,132.3,32,256s100.3,224,224,224s224-100.3,224-224S379.7,32,256,32z M346.9,332.9h-70.5v-51.1h30.8
	L256,228.4l-51.2,53.5h30.8V333h-65.5c-31.6,0-57.2-26-57.2-58.2c0-25.5,16.1-47.1,38.8-54.9c3-18.3,18.7-32.3,37.6-32.3
	c6.2,0,12,1.6,17.1,4.2c11.9-25.3,37.1-42.8,66.7-42.8c40.8,0,73.9,33.6,73.9,75.2c0,0.8-0.1,1.6-0.1,2.3
	c28.9,0.1,52.3,23.9,52.3,53.2S375.8,332.9,346.9,332.9z"/>
</svg>
