<?xml version="1.0" encoding="utf-8"?>
<!-- Generator: Adobe Illustrator 20.0.0, SVG Export Plug-In . SVG Version: 6.00 Build 0)  -->
<svg version="1.1" id="Layer_1" xmlns="http://www.w3.org/2000/svg" xmlns:xlink="http://www.w3.org/1999/xlink" x="0px" y="0px"
	 viewBox="0 0 48 48" style="enable-background:new 0 0 48 48;" xml:space="preserve">
<g>
	<circle cx="19.5" cy="10.5" r="3.5"/>
	<path d="M39,18c0-1.2,0.7-4.6,1-5.8l0-0.2c0-4.6-4.5-6.6-6.8-7L33,5c-0.3,0-2-0.1-2-2h-2c0,1.1,0.3,1.9,0.8,2.5L19,16h-0.5H15H9.5
		C8.7,16,8,16.7,8,17.5S8.7,19,9.5,19H10l5,1v1v6v1v16c0,1.1,0.9,2,2,2s2-0.9,2-2v-6l1-8l3,14c0,1.1,0.9,2,2,2s2-0.9,2-2l-2-16v-1
		v-1.6l4.8,5.1C29.3,31.1,29,31.9,29,33h2c0-1.8,1.5-2,2-2l0.2,0c2.4-0.4,6.8-2.4,6.8-7l0-0.2C39.7,22.6,39,19.2,39,18z M30.5,6.2
		C31.3,6.7,32.2,7,32.9,7c0.6,0.1,5,1.1,5.1,4.9c-0.1,0.6-0.5,2.5-0.8,4.1H28h-3h-4.6L30.5,6.2z M32.9,29c-0.7,0-1.6,0.3-2.4,0.8
		L25,24v-4.2L37.1,19c0.2,1.8,0.8,4.4,0.9,5.1C37.9,27.9,33.5,28.9,32.9,29z"/>
</g>
</svg>
