<?xml version="1.0" encoding="utf-8"?>
<!-- Generator: Adobe Illustrator 20.0.0, SVG Export Plug-In . SVG Version: 6.00 Build 0)  -->
<svg version="1.1" id="Layer_1" xmlns="http://www.w3.org/2000/svg" xmlns:xlink="http://www.w3.org/1999/xlink" x="0px" y="0px"
	 viewBox="0 0 48 48" style="enable-background:new 0 0 48 48;" xml:space="preserve">
<path d="M44,38v-2H31.9c0.7-0.6,1.1-1.5,1.1-2.5c0-1.9-1.6-3.5-3.5-3.5S26,31.6,26,33.5c0,1,0.4,1.9,1.1,2.5h-3.5l0.5-6l15.2-8.2
	c0.7-0.4,1-1.3,0.7-2c-0.4-0.7-1.3-1-2-0.7L34,20.8v0L29,23v-5.5v-0.1v0l13.1-9.6c0.9-0.6,1.2-1.9,0.6-2.8c-0.6-0.9-1.9-1.2-2.8-0.6
	L24.5,14L9.1,4.3C8.2,3.7,6.9,4,6.3,4.9C5.7,5.8,6,7.1,6.9,7.7L20,17.4V36H4v2h16v3H4v2h16.1c0.2,0.6,0.8,1,1.4,1s1.2-0.4,1.4-1H44
	v-2H23.1l0.2-3H44z"/>
</svg>
