<?xml version="1.0" encoding="utf-8"?>
<!-- Generator: Adobe Illustrator 20.0.0, SVG Export Plug-In . SVG Version: 6.00 Build 0)  -->
<svg version="1.1" id="Layer_1" xmlns="http://www.w3.org/2000/svg" xmlns:xlink="http://www.w3.org/1999/xlink" x="0px" y="0px"
	 viewBox="0 0 48 48" style="enable-background:new 0 0 48 48;" xml:space="preserve">
<g>
	<circle cx="23.5" cy="8.5" r="3.5"/>
	<path d="M42,19l-4-8c1.1-1.2,1.3-3.5,0.3-5.6c-0.7-1.5-1.8-2.7-3.1-3.2c-0.8-0.3-1.7-0.3-2.4,0.1c-1.9,0.9-2.4,3.7-1.3,6.3
		c0.7,1.5,1.8,2.7,3.1,3.2c0.4,0.1,0.8,0.2,1.2,0.2c0.1,0,0.2,0,0.4,0l2.6,5.2l-6.7,1.8L26,15v0l0,0c-0.2-0.1-2.9-0.6-4.2-0.8
		C21.3,14.1,21,14,21,14l-2-0.8l0,0L8.1,9.1c-0.8-0.4-1.6,0-2,0.7c-0.3,0.8,0,1.6,0.7,2L19,18v8v10c0,0.2,0,0.3,0.1,0.5l2,8
		c0.2,0.9,1,1.5,1.9,1.5c0.2,0,0.3,0,0.5-0.1c1.1-0.3,1.7-1.4,1.5-2.4L23,35.8l0.4-3.8l1.7,3.6l0,0c0.1,0.2,0.2,0.5,0.4,0.7l6,7
		c0.4,0.5,1,0.7,1.5,0.7c0.5,0,0.9-0.2,1.3-0.5c0.8-0.7,0.9-2,0.2-2.8L28.8,34L26,26v-6.4l5.3,2.2c0.2,0.1,0.4,0.2,0.7,0.2
		c0.1,0,0.2,0,0.3,0l7.5-2c0.1,0,0.2-0.1,0.3-0.1l0,0L42,19z M35.4,9.9c-0.8-0.3-1.5-1.1-2-2.1c-0.7-1.7-0.5-3.3,0.3-3.7
		C33.8,4,34,4,34.1,4c0.1,0,0.3,0,0.5,0.1c0.8,0.3,1.5,1.1,2,2.1l0,0c0.7,1.7,0.5,3.3-0.3,3.7C36,10,35.8,10,35.4,9.9z"/>
	<path d="M8,5l4,1V2L8,3C7.4,3,7,3.4,7,4S7.4,5,8,5z"/>
</g>
</svg>
