<?xml version="1.0" encoding="utf-8"?>
<!-- Generator: Adobe Illustrator 20.0.0, SVG Export Plug-In . SVG Version: 6.00 Build 0)  -->
<svg version="1.1" id="Layer_1" xmlns="http://www.w3.org/2000/svg" xmlns:xlink="http://www.w3.org/1999/xlink" x="0px" y="0px"
	 viewBox="0 0 48 48" style="enable-background:new 0 0 48 48;" xml:space="preserve">
<g>
	<circle cx="40.5" cy="18.5" r="3.5"/>
	<circle cx="27.5" cy="8.5" r="3.5"/>
	<path d="M38.6,38.4C38,38.7,37.1,39,36,39s-2-0.3-2.6-0.6c-0.9-0.5-2-0.5-2.8,0C30,38.7,29.1,39,28,39s-2-0.3-2.6-0.6
		c-0.6-0.4-1.4-0.5-2.1-0.3l4.4-7c0.6-0.9,0.3-2.2-0.6-2.8l-5.8-3.6l3.2-3.2l0,0L27,19l6.2,3.5l4.4,3.2c0.3,0.2,0.6,0.3,0.9,0.3
		c0.4,0,0.9-0.2,1.2-0.6c0.5-0.7,0.4-1.6-0.3-2.1L27,14c-1.4-1.4-3.6-1.4-4.9,0l-8,8c0,0,0,0,0,0l0,0c-0.6,0.6-0.9,1.3-1,2
		c0,0,0,0,0,0l-1.2,8L7,29.3C6,28.7,4.8,29,4.3,30C3.7,31,4,32.2,5,32.7l7,4c0.3,0.2,0.6,0.3,1,0.3c0.3,0,0.5-0.1,0.8-0.2
		c0.6-0.2,1-0.7,1.2-1.3l2.4-7.4l5.9,2.5l-3.9,6.3c-0.4,0.6-0.4,1.4-0.1,2c-0.8-0.1-1.4-0.3-1.8-0.6c-0.9-0.5-2-0.5-2.8,0
		C14,38.7,13.1,39,12,39s-2-0.3-2.6-0.6c-0.9-0.5-2-0.5-2.8,0C6,38.7,5.1,39,4,39v4h40v-4c-1.1,0-2-0.3-2.6-0.6
		C40.5,37.9,39.5,37.9,38.6,38.4z"/>
</g>
</svg>
