<?xml version="1.0" encoding="utf-8"?>
<!-- Generator: Adobe Illustrator 20.0.0, SVG Export Plug-In . SVG Version: 6.00 Build 0)  -->
<svg version="1.1" id="Layer_1" xmlns="http://www.w3.org/2000/svg" xmlns:xlink="http://www.w3.org/1999/xlink" x="0px" y="0px"
	 viewBox="0 0 48 48" style="enable-background:new 0 0 48 48;" xml:space="preserve">
<g>
	<circle cx="12" cy="34" r="1"/>
	<circle cx="36" cy="34" r="1"/>
	<path d="M26.2,24.4L26.2,24.4C26.2,24.4,26.2,24.4,26.2,24.4l-3.5-2.8l5.6-4.2l2.9,2.9c0.3,0.4,0.7,0.6,1.2,0.6h7
		c0.8,0,1.5-0.7,1.5-1.5S40.3,18,39.5,18h-6.2l-0.1-0.2l0,0l-3.6-5c0-0.1-0.1-0.2-0.1-0.2c-1.1-1.6-3.2-2-4.9-1l-8,6
		c-1.6,1.1-2,3.2-1,4.9c0.2,0.3,0.5,0.6,0.7,0.8c0,0,0.1,0.1,0.1,0.1l0.3,0.2c0.1,0,0.1,0.1,0.2,0.1l5.9,3.3L22,34.8
		c-0.1,1.1,0.7,2.1,1.8,2.2c0.1,0,0.2,0,0.2,0c1,0,1.9-0.8,2-1.8l1-9C27.1,25.5,26.8,24.9,26.2,24.4z"/>
	<circle cx="33.5" cy="9.5" r="3.5"/>
	<path d="M12,26c-4.4,0-8,3.6-8,8s3.6,8,8,8s8-3.6,8-8S16.4,26,12,26z M12,40c-3.3,0-6-2.7-6-6s2.7-6,6-6s6,2.7,6,6S15.3,40,12,40z"
		/>
	<path d="M36,26c-4.4,0-8,3.6-8,8s3.6,8,8,8s8-3.6,8-8S40.4,26,36,26z M36,40c-3.3,0-6-2.7-6-6s2.7-6,6-6s6,2.7,6,6S39.3,40,36,40z"
		/>
</g>
</svg>
