<?xml version="1.0" encoding="utf-8"?>
<!-- Generator: Adobe Illustrator 20.0.0, SVG Export Plug-In . SVG Version: 6.00 Build 0)  -->
<svg version="1.1" id="Layer_1" xmlns="http://www.w3.org/2000/svg" xmlns:xlink="http://www.w3.org/1999/xlink" x="0px" y="0px"
	 viewBox="0 0 48 48" style="enable-background:new 0 0 48 48;" xml:space="preserve">
<g>
	<circle cx="24.5" cy="7.5" r="3.5"/>
	<circle cx="35" cy="30" r="1"/>
	<circle cx="12" cy="35" r="1"/>
	<path d="M27,30c0,4.4,3.6,8,8,8s8-3.6,8-8s-3.6-8-8-8S27,25.6,27,30z M35,24c3.3,0,6,2.7,6,6s-2.7,6-6,6s-6-2.7-6-6S31.7,24,35,24z
		"/>
	<path d="M38,39c-0.8,0-1.7-1-3-1c-3.8,0-5,3-9,3c-0.6,0-1.2-1-2-1s-1.4,0.1-2.1,0.3c-2.8,0.9-5,2.6-8.4,2.6c-0.2,0-0.4,0-0.6,0
		c4-0.4,7.1-3.8,7.1-7.9c0-4.4-3.6-8-8-8s-8,3.6-8,8s3.6,8,8,8c0.2,0,0.5,0,0.7,0C9.5,43.2,4,45,4,45h39V34C40.8,34,39.4,39,38,39z
		 M6,35c0-3.3,2.7-6,6-6s6,2.7,6,6s-2.7,6-6,6S6,38.3,6,35z"/>
	<path d="M10.4,24.3c0.5,0.4,1,0.6,1.6,0.7l0,0l6,2l0,0l1.4,0.5l2.7,7.2c0.3,0.8,1.1,1.3,1.9,1.3c0.2,0,0.5,0,0.7-0.1
		c1-0.4,1.6-1.5,1.2-2.6l-3-8c-0.2-0.5-0.6-0.9-1.1-1.1l-0.6-0.3l0,0l-4.1-2.2c0,0,4.7-5.3,4.7-5.4l9.1,3.6c0.2,0.1,0.4,0.1,0.6,0.1
		c0.6,0,1.1-0.3,1.4-0.9c0.3-0.8,0-1.6-0.8-2l-11.5-5.6c0,0,0,0-0.1,0C19,10.6,17.1,11,16,12.4l-6.3,7C8.5,20.9,8.9,23.1,10.4,24.3z
		"/>
</g>
</svg>
