<?xml version="1.0" encoding="utf-8"?>
<!-- Generator: Adobe Illustrator 20.0.0, SVG Export Plug-In . SVG Version: 6.00 Build 0)  -->
<svg version="1.1" id="Layer_1" xmlns="http://www.w3.org/2000/svg" xmlns:xlink="http://www.w3.org/1999/xlink" x="0px" y="0px"
	 viewBox="0 0 48 48" style="enable-background:new 0 0 48 48;" xml:space="preserve">
<g>
	<path d="M19.9,21H27v2v7c0,1.1,0.9,2,2,2s2-0.9,2-2v-7v-2h0.5c0.8,0,1.5-0.7,1.5-1.5S32.3,18,31.5,18H31v-2V7.5c0,0,0,0,0,0
		c0,0,0,0,0,0c0-0.4-0.1-0.7-0.2-1.1c-0.6-1.8-2.7-2.7-4.5-2.1c-0.5,0.2-0.9,0.3-1.3,0.5c-0.1,0.1-0.3,0.1-0.4,0.2
		C24.4,5,24.2,5.1,24,5.2l0,0c-5.7,3.4-6.9,10.4-7,10.8c-0.1,0.3-0.1,0.7-0.1,1c0,0,0,0,0,0C16.9,20,17.9,21,19.9,21z M24.4,17
		L24.4,17c0.1-0.4,0.2-0.7,0.3-1.1c0.5-1.5,1.2-3.1,2.3-4.1V16v1.8l-2.7-0.3C24.3,17.3,24.3,17.2,24.4,17z"/>
	<circle cx="18.5" cy="25.5" r="3.5"/>
	<path d="M40,34c0,0-1,2-4,2s-4-2-4-2s-1,2-4,2s-4-2-4-2s-1,2-4,2s-4-2-4-2s-1,2-4,2s-4-2-4-2s-1,2-4,2v2v6h40v-6v-2
		C41,36,40,34,40,34z"/>
</g>
</svg>
