<?xml version="1.0" encoding="utf-8"?>
<!-- Generator: Adobe Illustrator 20.0.0, SVG Export Plug-In . SVG Version: 6.00 Build 0)  -->
<svg version="1.1" id="Layer_1" xmlns="http://www.w3.org/2000/svg" xmlns:xlink="http://www.w3.org/1999/xlink" x="0px" y="0px"
	 viewBox="0 0 48 48" style="enable-background:new 0 0 48 48;" xml:space="preserve">
<g>
	<circle cx="39.5" cy="9.5" r="3.5"/>
	<path d="M39.5,15c-1.2,0-2.3,0.6-2.9,1.6c-0.1,0.1-0.2,0.2-0.3,0.3L31.9,24H29c-2.2-3.4-5.8-6.7-12.9-7c-1.4-1.5-1-3-1-3
		s-0.9,1.3-0.9,3.1c-0.4,0-0.7,0.1-1,0.2c-1-1-1-2.2-1-2.2s-1.1,1.4-0.9,3C9,19.2,8,21,8,21l1.8,2.6c0,0-4.8,8-4.8,9.6
		c0,0.4,0.1,0.8,0.3,1.2c0,0,0,0,0,0.1c0.1,0.2,0.2,0.4,0.4,0.5c0,0,0,0,0.1,0.1C6.3,35.6,7.1,36,8,36c1.6,0,2-2,2-2s2.4-2,4-2
		s4-4,4-4c0,1.6,0,5,0,5c0,4.5,1.1,7.7,2,10h13.9h4.2H43V31V18.5C43,16.6,41.4,15,39.5,15z M33,28c0.7,0,1.3-0.4,1.7-0.9L36,25v6
		l0,0c-1.3,0-2.6-0.1-3.7-0.4c-0.1-0.2-0.2-0.4-0.3-0.6c-0.3-0.6-0.6-1.2-0.9-2H33z"/>
</g>
</svg>
