<?xml version="1.0" encoding="utf-8"?>
<!-- Generator: Adobe Illustrator 20.0.0, SVG Export Plug-In . SVG Version: 6.00 Build 0)  -->
<svg version="1.1" id="Layer_1" xmlns="http://www.w3.org/2000/svg" xmlns:xlink="http://www.w3.org/1999/xlink" x="0px" y="0px"
	 viewBox="0 0 48 48" style="enable-background:new 0 0 48 48;" xml:space="preserve">
<g>
	<path d="M44,17c0,0-10.1,0-12.2,0c-0.4-1.2-1.5-2-2.8-2v2h-5l-6-3.4c-0.6-0.4-1.3-0.6-2.1-0.6h-5.7c-0.8,0-1.5,0.2-2.2,0.6
		l-5.3,3.3C2.3,17.2,2,17.7,2,18.2v6.3C2,25.3,2.7,26,3.5,26S5,25.3,5,24.5V19l4-2v8.7l-2.8,8.5L2.3,41C1.7,42,2,43.2,3,43.7
		C3.3,43.9,3.7,44,4,44c0.7,0,1.4-0.4,1.7-1l4-7l3.3-7c0,0,0.1,0,0.1,0l5.1,5.9l1.9,7.6c0.2,0.9,1,1.5,1.9,1.5c0.2,0,0.3,0,0.5-0.1
		c1.1-0.3,1.7-1.4,1.5-2.4l-2-8c-0.1-0.3-0.2-0.5-0.3-0.7L17,26v-9l5.8,2.8c0.2,0.1,0.5,0.2,0.7,0.2c0.1,0,0.4,0,0.5,0h5v1
		c1.3,0,2.4-0.8,2.8-2c2,0,12.2,0,12.2,0l2-1L44,17z"/>
	<path d="M13.5,11c1.9,0,3.5-1.6,3.5-3.5c0,0,0,0,0,0s0,0,0,0c0-1.7-1.2-3.1-2.8-3.4C14,4,13.7,4,13.5,4c-0.2,0-0.3,0-0.5,0v0
		c-1.7,0.2-3,1.7-3,3.4C10,9.4,11.6,11,13.5,11z"/>
</g>
</svg>
