<?xml version="1.0" encoding="utf-8"?>
<!-- Generator: Adobe Illustrator 20.0.0, SVG Export Plug-In . SVG Version: 6.00 Build 0)  -->
<svg version="1.1" id="Layer_1" xmlns="http://www.w3.org/2000/svg" xmlns:xlink="http://www.w3.org/1999/xlink" x="0px" y="0px"
	 viewBox="0 0 48 48" style="enable-background:new 0 0 48 48;" xml:space="preserve">
<g>
	<circle cx="26.5" cy="9.5" r="3.5"/>
	<circle cx="44" cy="40" r="2"/>
	<path d="M40,37c-0.6,0-1,0.4-1,1c0,0.7-0.2,1.2-0.6,1.6C38,40,37.5,40,37.1,40c-0.4-0.1-1.3-1-2.1-2l-5.1-6.1
		c0.1-0.3,0.1-0.6,0-0.9L26,16c0-0.2-0.1-0.3-0.2-0.5c-1.1-2.2-3.1-2.9-4.8-2.3c-0.5,0.2-1,0.4-1.5,0.6C19.3,13.9,19.2,14,19,14
		c-0.4,0.2-0.7,0.4-1.1,0.6c-0.1,0.1-0.2,0.1-0.4,0.2c-0.4,0.3-0.9,0.5-1.3,0.8c-0.1,0-0.1,0.1-0.2,0.2c-0.3,0.2-0.7,0.5-1,0.8
		c-0.1,0.1-0.2,0.2-0.3,0.3c-0.3,0.2-0.6,0.5-0.9,0.7c-0.1,0.1-0.1,0.1-0.2,0.2c-0.3,0.3-0.7,0.6-0.9,0.9c-0.1,0.1-0.1,0.1-0.2,0.2
		c-0.2,0.3-0.5,0.5-0.7,0.8c-0.1,0.1-0.1,0.1-0.2,0.2c-0.2,0.3-0.5,0.6-0.7,0.8l0,0c0,0,0,0,0,0c-0.2,0.2-0.4,0.5-0.5,0.7
		c0,0.1-0.1,0.1-0.1,0.1c-0.1,0.2-0.2,0.3-0.3,0.4C10,22,10,22,9.9,22.1c-0.1,0.1-0.1,0.2-0.2,0.3c0,0.1-0.1,0.1-0.1,0.1
		c-0.1,0.1-0.1,0.2-0.1,0.2c0,0,0,0,0,0c0,0,0,0,0,0c0,0,0,0,0,0c-0.1,0.2-0.2,0.4-0.3,0.6c0,0.1,0,0.2-0.1,0.2
		c0,0.1-0.1,0.2-0.1,0.4c0,0.1,0,0.2,0,0.3c0,0.1,0,0.2,0,0.3c0,0.1,0,0.2,0,0.3c0,0,0,0,0,0c0,0.1,0,0.1,0,0.2v9l-6.2,4.4
		c-0.9,0.7-1.1,1.9-0.4,2.8C2.8,41.7,3.4,42,4,42c0.4,0,0.8-0.1,1.2-0.4l7-5c0.5-0.4,0.8-1,0.8-1.6l0.5-4.7l0.1-1.2l5.3,3L18,39.7
		c-0.2,1.1,0.6,2.1,1.7,2.3c0.1,0,0.2,0,0.3,0c1,0,1.8-0.7,2-1.7l1-9c0.1-0.8-0.2-1.6-0.9-2l-5.6-4.4c1.4-1.8,3.9-4.1,6.8-5.1
		c0.2-0.1,0.3-0.1,0.5-0.2l2,7.4l-2.1-2.5l-1.5,1.3l4.8,5.7l0.1,0.5c0.2,0.5,0.6,0.9,1.1,1l5.3,6.3c0.6,0.8,2.1,2.6,3.4,2.8
		c0.1,0,0.3,0,0.4,0c0.9,0,1.7-0.3,2.4-0.9c0.6-0.5,1.3-1.5,1.3-3.1C41,37.4,40.6,37,40,37z"/>
</g>
</svg>
