<?xml version="1.0" encoding="utf-8"?>
<!-- Generator: Adobe Illustrator 20.0.0, SVG Export Plug-In . SVG Version: 6.00 Build 0)  -->
<svg version="1.1" id="Layer_1" xmlns="http://www.w3.org/2000/svg" xmlns:xlink="http://www.w3.org/1999/xlink" x="0px" y="0px"
	 viewBox="0 0 48 48" style="enable-background:new 0 0 48 48;" xml:space="preserve">
<style type="text/css">
	.st0{fill:#231F20;}
</style>
<g>
	<circle class="st0" cx="12.5" cy="23.5" r="4.5"/>
	<path class="st0" d="M26.1,26.3l2.6-5.8l9.5,4.3c1,0.5,2.2,0,2.6-1c0.5-1,0-2.2-1-2.6l-11-5c-0.9-0.4-1.9-0.1-2.5,0.7L14.5,34.8
		c6.9-1,9.3-4.9,14.5-6.8L26.1,26.3z"/>
</g>
<path class="st0" d="M32,38c0,0-0.1-3,3-3c3,0,3,3,3,3c0.8,0,2-1.2,2-3c0,0,0-4-6-4c-4.7,0-12,6-22,6c-3,0-4-2-4-2s-1,2-4,2v4
	c0,0,33.9,0,31,0C31.9,41,32,38,32,38z"/>
</svg>
