<?xml version="1.0" encoding="utf-8"?>
<!-- Generator: Adobe Illustrator 20.0.0, SVG Export Plug-In . SVG Version: 6.00 Build 0)  -->
<svg version="1.1" id="Layer_1" xmlns="http://www.w3.org/2000/svg" xmlns:xlink="http://www.w3.org/1999/xlink" x="0px" y="0px"
	 viewBox="0 0 48 48" style="enable-background:new 0 0 48 48;" xml:space="preserve">
<g>
	<polygon points="21.1,30 23.1,30 23.1,36 21.1,36 21.1,38 27.1,38 27.1,36 25.1,36 25.1,30 27.1,30 27.1,28 21.1,28 	"/>
	<path d="M28.3,21.7L38.1,4h-7l-7,12.6l-0.5-0.9L23,14.4l0,0L17.1,4h-7l9.6,17.2l0.3,0.5c-4.6,1.7-7.8,6.1-7.8,11.2
		c0,6.6,5.4,12,12,12s12-5.4,12-12C36.1,27.8,32.8,23.4,28.3,21.7z M24.1,43c-5.5,0-10-4.5-10-10c0-5.5,4.5-10,10-10s10,4.5,10,10
		C34.1,38.5,29.6,43,24.1,43z"/>
</g>
</svg>
