<?xml version="1.0" encoding="utf-8"?>
<!-- Generator: Adobe Illustrator 20.0.0, SVG Export Plug-In . SVG Version: 6.00 Build 0)  -->
<svg version="1.1" id="Layer_1" xmlns="http://www.w3.org/2000/svg" xmlns:xlink="http://www.w3.org/1999/xlink" x="0px" y="0px"
	 viewBox="0 0 48 48" style="enable-background:new 0 0 48 48;" xml:space="preserve">
<style type="text/css">
	.st0{fill:none;}
</style>
<g>
	<path class="st0" d="M11.6,24.6c0.6-0.6,1.6-0.8,2.4-0.3c0.8,0.4,1.7,0.9,2.5,1.4l-1.4-3.6l-0.6-1.7c-0.1-0.5-0.3-0.9-0.3-1.3h0
		c0,0,0,0,0,0H4.3L8,28h0.2L11.6,24.6z"/>
	<path class="st0" d="M33.6,24.6c0.6-0.6,1.6-0.8,2.4-0.3c0.8,0.4,1.7,0.9,2.5,1.4l-1.9-5.2l-0.1-0.1c-0.1-0.3-0.2-0.6-0.3-0.9
		c0-0.1-0.1-0.2-0.1-0.3c0,0,0,0,0,0h0c0,0,0,0,0,0H24.9l3.7,9h1.6L33.6,24.6z"/>
	<circle cx="37.5" cy="10.5" r="3.5"/>
	<circle cx="15.5" cy="10.5" r="3.5"/>
	<path d="M46.4,28l-3.2-9.8c-0.5-1.4-1.7-2.2-3.1-2.2c-0.2,0-1.9,0-3.1,0c0,0,0,0,0,0h-1c0,0,0,0,0,0H22.9c-0.8,0-1.5,0.7-1.5,1.5
		c0,0.8,0.6,1.4,1.3,1.5l3.7,9h-2l-3.2-9.8c-0.5-1.4-1.7-2.2-3.1-2.2c-0.1,0-0.9,0-1.7,0c0,0,0,0,0,0h-2.4c0,0,0,0,0,0H2.3
		c-0.8,0-1.5,0.7-1.5,1.5c0,0.8,0.6,1.4,1.3,1.5l3.7,9H1v5.9C3.2,33.5,4,32,4,32s1,2,4,2c0.1,0,0.2,0,0.3,0c0.8,0,1.5-0.2,2-0.5
		C11.5,32.9,12,32,12,32s1,2,4,2s4-2,4-2s1,2,4,2s4-2,4-2s0.1,0.2,0.3,0.4c0.4,0.5,1.2,1.3,2.8,1.5c0.3,0,0.6,0.1,0.9,0.1
		c3,0,4-2,4-2s1,2,4,2s4-2,4-2s0.8,1.5,3,1.9V28H46.4z M4.3,19h9.9c0,0,0,0,0,0h0c0.1,0.4,0.2,0.8,0.3,1.3l0.6,1.7l1.4,3.6
		c-0.8-0.4-1.7-0.9-2.5-1.4c-0.8-0.4-1.7-0.3-2.4,0.3L8.2,28H8L4.3,19z M24.9,19h11.3c0,0,0,0,0,0h0c0,0,0,0,0,0
		c0,0.1,0.1,0.2,0.1,0.3c0.1,0.3,0.2,0.6,0.3,0.9l0.1,0.1l1.9,5.2c-0.8-0.4-1.7-0.9-2.5-1.4c-0.8-0.4-1.7-0.3-2.4,0.3L30.2,28h-1.6
		L24.9,19z"/>
	<path d="M44,34c0,0-0.2,0.5-0.9,1s-1.6,1-3.1,1s-2.5-0.5-3.1-1S36,34,36,34s-0.2,0.5-0.9,1s-1.6,1-3.1,1s-2.5-0.5-3.1-1
		S28,34,28,34s-0.2,0.5-0.9,1s-1.6,1-3.1,1s-2.5-0.5-3.1-1S20,34,20,34s-0.2,0.5-0.9,1s-1.6,1-3.1,1s-2.5-0.5-3.1-1S12,34,12,34
		s-0.2,0.5-0.9,1S9.5,36,8,36s-2.5-0.5-3.1-1S4,34,4,34s-0.3,0.5-0.9,1C2.6,35.4,2,35.8,1,35.9V40h46v-4.1c-1-0.2-1.6-0.5-2.1-0.9
		C44.3,34.5,44,34,44,34z"/>
</g>
</svg>
