<?xml version="1.0" encoding="utf-8"?>
<!-- Generator: Adobe Illustrator 20.0.0, SVG Export Plug-In . SVG Version: 6.00 Build 0)  -->
<svg version="1.1" id="Layer_1" xmlns="http://www.w3.org/2000/svg" xmlns:xlink="http://www.w3.org/1999/xlink" x="0px" y="0px"
	 viewBox="0 0 48 48" style="enable-background:new 0 0 48 48;" xml:space="preserve">
<style type="text/css">
	.st0{fill:#231F20;}
</style>
<g>
	<path class="st0" d="M40,38c0,0-1,2-4,2s-4-2-4-2s-1,2-4,2s-4-2-4-2s-1,2-4,2s-4-2-4-2s-1,2-4,2s-4-2-4-2s-1,2-4,2v4h40v-4
		C41,40,40,38,40,38z"/>
	<circle class="st0" cx="7" cy="16" r="3"/>
	<path class="st0" d="M4.4,24.5l2.8,6c0.4,0.8,1.1,1.3,1.9,1.5C9.3,32,9.4,32,9.5,32H11c0,2.3,0.4,4.4,0.9,6c0,0,0.1,0,0.1,0
		c3,0,4-2,4-2s1,2,4,2s4-2,4-2s1,2,4,2s4-2,4-2s0.8,1.6,3.3,1.9C36.7,35.3,38,32,38,32h-6.6L44,29C38.5,6.3,35,3,35,3
		s-0.6,0.5-1.5,1.6L17.2,18.2c-0.5-0.3-1.1-0.2-1.6,0.1L12,21H6.7c0,0,0,0-0.1,0H5.5C4.7,21,4,21.7,4,22.5c0,0.1,0,0.2,0,0.3
		C4,23.2,4.1,23.7,4.4,24.5z M30.7,8.3c-3.4,4.9-7.6,13-7.7,23.4l-5-11.7c0.1-0.3,0.1-0.7-0.1-1L30.7,8.3z M12.5,24
		c0.3,0,0.6-0.1,0.9-0.3l3.8-2.9L22,32h-3.4l-2-2.6c-0.3-0.3-0.7-0.4-1.1-0.4H12c0-0.2-0.1-0.3-0.2-0.5L9.7,24H12.5z"/>
</g>
</svg>
