<?xml version="1.0" encoding="utf-8"?>
<!-- Generator: Adobe Illustrator 20.0.0, SVG Export Plug-In . SVG Version: 6.00 Build 0)  -->
<svg version="1.1" id="Layer_1" xmlns="http://www.w3.org/2000/svg" xmlns:xlink="http://www.w3.org/1999/xlink" x="0px" y="0px"
	 viewBox="0 0 48 48" style="enable-background:new 0 0 48 48;" xml:space="preserve">
<style type="text/css">
	.st0{fill:#231F20;}
</style>
<path class="st0" d="M35.5,19c2.5,0,4.5,2,4.5,4.5S38,28,35.5,28S31,26,31,23.5S33,19,35.5,19"/>
<g>
	<path class="st0" d="M16,31c0,0,1,2,4,2s4-2,4-2s1,2,4,2c2,0,3.1-0.9,3.6-1.5l-9.9-14.6c-0.5-0.8-1.6-1.1-2.5-0.7l-11,5
		c-1,0.5-1.4,1.6-1,2.6c0.5,1,1.6,1.4,2.6,1l9.5-4.3l2.6,5.8l-11,6.6C11.2,33,11.6,33,12,33C15,33,16,31,16,31z"/>
</g>
<path class="st0" d="M44,35c-3,0-4-2-4-2s-1,2-4,2s-4-2-4-2s-1,2-4,2s-4-2-4-2s-1,2-4,2s-4-2-4-2s-1,2-4,2s-4-2-4-2s-1,2-4,2v6h40
	V35z"/>
</svg>
