<?xml version="1.0" encoding="utf-8"?>
<!-- Generator: Adobe Illustrator 20.0.0, SVG Export Plug-In . SVG Version: 6.00 Build 0)  -->
<svg version="1.1" id="Layer_1" xmlns="http://www.w3.org/2000/svg" xmlns:xlink="http://www.w3.org/1999/xlink" x="0px" y="0px"
	 viewBox="0 0 48 48" style="enable-background:new 0 0 48 48;" xml:space="preserve">
<style type="text/css">
	.st0{fill:#231F20;}
</style>
<g>
	<circle class="st0" cx="14" cy="8" r="4"/>
	<path class="st0" d="M39,12c-0.5,0-1,0.2-1.4,0.6l-12.3,7.7l-3-4.4c0-0.1-0.1-0.1-0.1-0.2L22,15.4l9.2-5.5c0.7-0.4,1-1.3,0.6-2
		c-0.4-0.7-1.3-1-2-0.6l-17,9c-0.3,0.1-0.5,0.3-0.6,0.6l-4,7c-0.4,0.6-0.2,1.5,0.4,1.9l5,4c0.3,0.2,0.6,0.3,0.9,0.3
		c0.4,0,0.9-0.2,1.2-0.6c0.5-0.6,0.4-1.6-0.2-2.1l-4-3.2l3.9-4.4l4.7,6.8c0,0,0,0,0,0l0,0V42c0,1.1,0.9,2,2,2s2-0.9,2-2l2-16
		l13.9-10.2c0.6-0.3,1.1-1,1.1-1.8C41,12.9,40.1,12,39,12z M15.4,19.7C15.4,19.7,15.4,19.7,15.4,19.7C15.4,19.7,15.4,19.7,15.4,19.7
		L15.4,19.7z"/>
</g>
</svg>
