<?xml version="1.0" encoding="utf-8"?>
<!-- Generator: Adobe Illustrator 20.0.0, SVG Export Plug-In . SVG Version: 6.00 Build 0)  -->
<svg version="1.1" id="Layer_1" xmlns="http://www.w3.org/2000/svg" xmlns:xlink="http://www.w3.org/1999/xlink" x="0px" y="0px"
	 viewBox="0 0 48 48" style="enable-background:new 0 0 48 48;" xml:space="preserve">
<g>
	<path d="M39.8,8.8c-0.4-0.7-1.3-1-2-0.6l-6.9,3.9l-5.5,1.8l-0.1,0L25,14.1l-7.4,2.7c0,0,0,0,0,0L13,18.4v-6.9
		c0-0.8-0.7-1.5-1.5-1.5S10,10.7,10,11.5v9c0,0.5,0.2,0.9,0.6,1.2c0.3,0.2,0.6,0.3,0.9,0.3c0.2,0,0.3,0,0.5-0.1l7.6-1.8
		c0.1,0.4,0.2,0.8,0.3,1.2c0,0.1,0,0.1,0,0.2c0,0.2,0,0.3,0.1,0.5c0,0.1,0,0.2,0,0.3c0,0.2,0,0.3,0,0.5c0,0.1,0,0.2,0,0.3
		c0,0.2,0,0.3,0,0.5c0,0.1,0,0.2,0,0.4c0,0.2-0.1,0.4-0.1,0.6c0,0.1-0.1,0.3-0.1,0.4c-0.1,0.2-0.1,0.4-0.2,0.7
		c0,0.1-0.1,0.2-0.1,0.3c-0.1,0.3-0.3,0.7-0.4,1.1l-1.3,3.3l0,0l-1.3,3.3l-7.5,4.7c-0.9,0.6-1.2,1.8-0.6,2.8c0.4,0.6,1,0.9,1.7,0.9
		c0.4,0,0.7-0.1,1.1-0.3l8-5c0.3-0.2,0.6-0.5,0.8-0.9L23,29c0,0-0.1,1.1-0.4,3h0c-0.2,1.2-0.3,2.7-0.6,4.5l-2.9,6.8
		c-0.4,1,0,2.2,1,2.6c0.3,0.1,0.5,0.2,0.8,0.2c0.8,0,1.5-0.5,1.8-1.2l3-7c0.1-0.2,0.1-0.3,0.1-0.5c0,0,2-9.3,2-14.3c0,0,0-0.1,0-0.2
		c0-1.8-0.3-3.5-0.7-4.9c0,0,0,0,0-0.1l4.7-2.9c0.1,0,7.3-4.1,7.3-4.1C40,10.4,40.2,9.5,39.8,8.8z"/>
	<circle cx="19.5" cy="9.5" r="3.5"/>
	<circle cx="32.5" cy="5.5" r="3.5"/>
</g>
</svg>
