<?xml version="1.0" encoding="utf-8"?>
<!-- Generator: Adobe Illustrator 20.0.0, SVG Export Plug-In . SVG Version: 6.00 Build 0)  -->
<svg version="1.1" id="Layer_1" xmlns="http://www.w3.org/2000/svg" xmlns:xlink="http://www.w3.org/1999/xlink" x="0px" y="0px"
	 viewBox="0 0 48 48" style="enable-background:new 0 0 48 48;" xml:space="preserve">
<style type="text/css">
	.st0{fill:#231F20;}
</style>
<path class="st0" d="M12.5,6C14.4,6,16,7.6,16,9.5S14.4,13,12.5,13C10.6,13,9,11.4,9,9.5S10.6,6,12.5,6"/>
<circle class="st0" cx="22" cy="17" r="4"/>
<path class="st0" d="M40.5,28.1L9,19.5V11c0-1.1-0.9-2-2-2s-2,0.9-2,2v10c0,0.9,0.6,1.7,1.4,1.9l8.3,3.3l-1.9,6.7
	C15.2,32.6,16,31,16,31s1,2,4,2s4-2,4-2s0.1,0.2,0.3,0.4l0.8-2.7L32,30l7.3,1.9C39.8,31.4,40,31,40,31s0.2,0.4,0.7,0.9
	c0.6-0.2,1-0.7,1.2-1.3C42.2,29.4,41.6,28.3,40.5,28.1z"/>
<path class="st0" d="M44,35c-3,0-4-2-4-2s-1,2-4,2s-4-2-4-2s-1,2-4,2s-4-2-4-2s-1,2-4,2s-4-2-4-2s-1,2-4,2s-4-2-4-2s-1,2-4,2v6h40
	V35z"/>
</svg>
