<?xml version="1.0" encoding="utf-8"?>
<!-- Generator: Adobe Illustrator 20.0.0, SVG Export Plug-In . SVG Version: 6.00 Build 0)  -->
<svg version="1.1" id="Layer_1" xmlns="http://www.w3.org/2000/svg" xmlns:xlink="http://www.w3.org/1999/xlink" x="0px" y="0px"
	 viewBox="0 0 48 48" style="enable-background:new 0 0 48 48;" xml:space="preserve">
<g>
	<path d="M45,9h-3V4c0-0.6-0.4-1-1-1h-1c-0.6,0-1,0.4-1,1c0-0.6-0.4-1-1-1h-1c-0.6,0-1,0.4-1,1v5h-2h-5H19h-5h-2V4c0-0.6-0.4-1-1-1
		h-1C9.4,3,9,3.4,9,4c0-0.6-0.4-1-1-1H7C6.4,3,6,3.4,6,4v5H3v2h3v5c0,0.6,0.4,1,1,1h1c0.6,0,1-0.4,1-1c0,0.6,0.4,1,1,1h1
		c0.6,0,1-0.4,1-1v-5h2h0.5c0,0.2,0,0.3,0.1,0.5l3.9,11.3l0.5,2.9c0,0,0,0,0,0l0.5,3.1l0.4,2.5L16,35l0,0l-6.4,6.5
		c-0.8,0.7-0.9,2-0.1,2.8C9.9,44.8,10.5,45,11,45c0.5,0,1-0.2,1.4-0.5L24,34c0,0,0,0,0,0l8,2l-1,6.8c-0.1,1.1,0.6,2.1,1.7,2.2
		c0.1,0,0.2,0,0.3,0c1,0,1.9-0.7,2-1.8l1-8.2c0.1-0.9-0.4-1.8-1.2-2.1L32,31.5v0l-3.6-1.8l0.6-3.4l0.1-0.7l0,0l0.5-3l3.9-11.1
		c0.1-0.2,0.1-0.3,0.1-0.5H34h2v5c0,0.6,0.4,1,1,1h1c0.6,0,1-0.4,1-1c0,0.6,0.4,1,1,1h1c0.6,0,1-0.4,1-1v-5h3V9z M27,21
		C27,21,27,21,27,21C27,21,27,21,27,21c0,0.1-0.1,0.5-1,0.8v0c-0.4,0.1-1.1,0.2-2,0.2s-1.5-0.1-2-0.2v0c-0.9-0.3-1-0.7-1-0.8
		c0,0,0,0,0,0c0,0,0,0,0,0l-3.4-10H19h10h1.4L27,21z"/>
	<circle cx="24" cy="17" r="3"/>
</g>
</svg>
