<?xml version="1.0" encoding="utf-8"?>
<!-- Generator: Adobe Illustrator 20.0.0, SVG Export Plug-In . SVG Version: 6.00 Build 0)  -->
<svg version="1.1" id="Layer_1" xmlns="http://www.w3.org/2000/svg" xmlns:xlink="http://www.w3.org/1999/xlink" x="0px" y="0px"
	 viewBox="0 0 48 48" style="enable-background:new 0 0 48 48;" xml:space="preserve">
<g>
	<circle cx="33" cy="8" r="4"/>
	<path d="M40.5,21H35l-2.6-6.6c-0.1-0.2-0.2-0.3-0.3-0.4c-0.1-0.1-0.2-0.2-0.3-0.3L27,11c-0.2-0.1-0.5-0.2-0.8-0.2l0,0L19.8,10
		c-0.3,0-0.6,0.1-0.8,0.3l-5.3,4c-0.7,0.5-0.9,1.4-0.4,2.1c0.5,0.7,1.4,0.9,2.1,0.4l5-3.7l4,1.2L20,21.8l0,0l0,0l0,0l0,0l0,0l0,0
		l0,0l-0.5,0.9L14.9,30H7c-1.1,0-2,0.9-2,2c0,1.1,0.9,2,2,2h9c0.7,0,1.3-0.4,1.7-1l4-4.6l5.7,5.1l0,0l0,0L23.3,41
		c-0.5,1-0.2,2.2,0.8,2.7c0.3,0.2,0.6,0.3,1,0.3c0.7,0,1.4-0.4,1.8-1l5-9c0.5-0.9,0.3-2-0.5-2.6l-5.2-6l4.1-7.3l2.5,4.9
		c0.2,0.6,0.8,0.9,1.4,0.9h6.5c0.8,0,1.5-0.7,1.5-1.5S41.3,21,40.5,21z"/>
</g>
</svg>
