<?xml version="1.0" encoding="utf-8"?>
<!-- Generator: Adobe Illustrator 20.0.0, SVG Export Plug-In . SVG Version: 6.00 Build 0)  -->
<svg version="1.1" id="Layer_1" xmlns="http://www.w3.org/2000/svg" xmlns:xlink="http://www.w3.org/1999/xlink" x="0px" y="0px"
	 viewBox="0 0 48 48" style="enable-background:new 0 0 48 48;" xml:space="preserve">
<g>
	<circle cx="24.5" cy="8.5" r="3.5"/>
	<path d="M37.5,23c0.8,0,1.5-0.7,1.5-1.5c0-0.8-0.7-1.5-1.5-1.5h-5.3l-4.6-5.5c-0.3-0.3-0.7-0.5-1.2-0.5H20c0,0,0,0,0,0.1
		c-0.6-0.2-1.2,0-1.6,0.5l-5,6c-0.5,0.6-0.5,1.5,0.1,2l1.6,1.6c0,0-0.7,1.1-0.9,1.7c0,0,0,0.1,0,0.1h0c0,0,0,0,0,0.1c0,0,0,0,0,0
		l0,0c0,0,0,0,0,0C14,26.4,14,26.7,14,27v8l-6.3,5.5c-0.8,0.7-0.9,2-0.2,2.8C7.9,43.8,8.4,44,9,44c0.5,0,0.9-0.2,1.3-0.5l8-7
		c0.4-0.4,0.7-0.9,0.7-1.5h0v-5l0,0l4,5l0.8-0.6l3.4,8.4c0.3,0.7,1.1,1.2,1.8,1.2c0.3,0,0.5-0.1,0.8-0.2c1-0.4,1.5-1.6,1-2.6l-4-9
		c-0.1-0.1-0.1-0.2-0.2-0.3L22,26c0,0,0,0,0,0l3.7-7.4l4.7,3.9c0.3,0.3,0.7,0.5,1.2,0.5L37.5,23c-1.9,0-3.5,1.6-3.5,3.5
		c0,1.9,1.6,3.5,3.5,3.5c1.9,0,3.5-1.6,3.5-3.5C41,24.6,39.4,23,37.5,23z"/>
</g>
</svg>
