<?xml version="1.0" encoding="utf-8"?>
<!-- Generator: Adobe Illustrator 20.0.0, SVG Export Plug-In . SVG Version: 6.00 Build 0)  -->
<svg version="1.1" id="Layer_1" xmlns="http://www.w3.org/2000/svg" xmlns:xlink="http://www.w3.org/1999/xlink" x="0px" y="0px"
	 viewBox="0 0 48 48" style="enable-background:new 0 0 48 48;" xml:space="preserve">
<path d="M36,8c-1.8,0-3,1-3,1h0h-2h-5h-2c0-2.2-1.8-4-4-4c-2.1,0-3.8,1.7-4,3.7C14.5,10,10.5,14,9.2,22c0,0,0,0,0,0h0
	c0,0.2-0.1,0.5-0.1,0.7c0,0.1,0,0.2,0,0.3C9,23.4,9,23.4,9,23.8c0,0.1,0,0.1,0,0.2l0,0.1c0,0,0,0.1,0,0.1c0,0,0,0,0,0l2.9,8.7
	l-2.9,9.5c-0.3,1.1,0.3,2.2,1.3,2.5C10.6,45,10.8,45,11,45c0.9,0,1.7-0.6,1.9-1.4l3-10c0,0,0-0.1,0-0.1l0.2,0.3l2.9,9.8
	c0.3,0.9,1.1,1.4,1.9,1.4c0.2,0,0.4,0,0.6-0.1c1.1-0.3,1.7-1.4,1.3-2.5l-3-10c0-0.1-0.1-0.3-0.2-0.4L16,23c0-0.3,0.1-0.7,0.2-1l0,0
	c0.1-0.5,0.2-1,0.3-1.5c0,0,0-0.1,0-0.1c0.1-0.3,0.2-0.5,0.3-0.8l3.1,2.1c0.3,0.2,0.7,0.3,1.1,0.3c0.6,0,1.1-0.2,1.5-0.7l2.4-2.7
	l0,0l1.3-1.5l0,0l0,0c0,0,1.7-0.5,2.7-1.7c0.6-0.8,1.1-1.6,1.1-2.4h1h2h0c0,0,1.5,1,3,1c1.5,0,3-0.3,3-2v-2C39,8.3,37.8,8,36,8z
	 M20.6,17.3l-2-1.4c1.2-1.8,2.3-2.9,2.4-3h2.5c-0.3,0.8-0.3,1.5-0.3,1.5l0,0l0,0l0,0l0,0L20.6,17.3z"/>
</svg>
