<?xml version="1.0" encoding="utf-8"?>
<!-- Generator: Adobe Illustrator 20.0.0, SVG Export Plug-In . SVG Version: 6.00 Build 0)  -->
<svg version="1.1" id="Layer_1" xmlns="http://www.w3.org/2000/svg" xmlns:xlink="http://www.w3.org/1999/xlink" x="0px" y="0px"
	 viewBox="0 0 48 48" style="enable-background:new 0 0 48 48;" xml:space="preserve">
<g>
	<path d="M40.7,14.6c-0.5-0.6-1.5-0.8-2.1-0.2L34,18.7l-0.6-0.4l0,0l-4.5-2.9l-6.3-3.1c-0.2-0.1-0.4-0.2-0.6-0.2c0,0,0,0,0,0L7.4,12
		c-0.8,0.1-1.4,0.8-1.4,1.6C6,14.4,6.7,15,7.5,15c0,0,0.1,0,0.1,0l8.4,0.7v0l2.8,0.2L16,23l-3.3,7.8c-0.4,0.7-0.1,1.6,0.7,2
		c0.2,0.1,0.4,0.2,0.7,0.2c0.5,0,1.1-0.3,1.3-0.8l5.1-7.1l0,0l-5.8,15.8c-0.3,0.8,0,1.6,0.8,2C15.6,43,15.8,43,16,43
		c0.6,0,1.1-0.3,1.4-0.9l4.3-9.1l0,0l2.8-6l0,0l0,0l0,0l3.8-7.4l3.6,1.6l0,0l1.4,0.6c0.2,0.1,0.5,0.2,0.8,0.2c0.3,0,0.7-0.1,0.9-0.3
		l5.4-5C41.1,16.2,41.2,15.2,40.7,14.6z"/>
	<circle cx="26.5" cy="7.5" r="3.5"/>
	<circle cx="28.5" cy="40.5" r="3.5"/>
</g>
</svg>
