<?xml version="1.0" encoding="utf-8"?>
<!-- Generator: Adobe Illustrator 20.0.0, SVG Export Plug-In . SVG Version: 6.00 Build 0)  -->
<svg version="1.1" id="Layer_1" xmlns="http://www.w3.org/2000/svg" xmlns:xlink="http://www.w3.org/1999/xlink" x="0px" y="0px"
	 viewBox="0 0 48 48" style="enable-background:new 0 0 48 48;" xml:space="preserve">
<g>
	<circle cx="16.5" cy="9.6" r="3.5"/>
	<circle cx="26.5" cy="34.6" r="3.5"/>
	<path d="M46.5,9.7c-0.7-0.8-2-1-2.8-0.3l-6,5c-0.5,0.4-0.8,1.1-0.7,1.8l0.5,3.9l-4.7-3.3l-1.8-6.4C30.7,9.6,29.9,9,29,9
		c-0.2,0-0.4,0-0.6,0.1c-1.1,0.3-1.7,1.4-1.4,2.5l2,7c0.1,0.4,0.3,0.7,0.6,1l4.8,4l-4,4c0,0,0,0,0,0l0,0c0,0,0,0,0,0l-3.8-3.9l0,0
		l-1.6-1.6c-0.1-0.1-0.2-0.2-0.3-0.3l-3.4-2.3l0,0c0,0-5.5-4.1-7.2-5c-1.7-0.9-3.8-0.2-4.7,1.6l-4.1,8.3C5,25,5,26.1,5,26.1l1,7.2
		l-4.5,5.4c-0.7,0.8-0.6,2.1,0.3,2.8c0.9,0.7,2.1,0.6,2.8-0.3l5-6C9.8,35,10,34.5,10,34.1v-4.4l0,0v0l5.2,4.5l1.8,6.4
		c0.3,0.9,1.1,1.5,1.9,1.5c0.2,0,0.4,0,0.6-0.1c1.1-0.3,1.7-1.4,1.4-2.5l-2-7c-0.1-0.4-0.3-0.7-0.6-1l-5.2-5.4l0,0L13,26l2.8-5.5
		l0.1-0.7l7.2,4.5l7.9,8.8c0.1,0.1,0.2,0.2,0.3,0.2c0,0,0,0,0,0c0.1,0.1,0.2,0.1,0.3,0.2c0,0,0,0,0,0c1.4,0.9,3.2,0.8,4.4-0.4
		l6.1-6.3c0.8-0.8,1.1-1.8,1-2.8c0,0,0-0.1,0-0.1l0-0.1c0-0.1,0-0.2,0-0.3l-1.8-6.7l5.1-4.3C47.1,11.8,47.2,10.6,46.5,9.7z"/>
</g>
</svg>
