<?xml version="1.0" encoding="utf-8"?>
<!-- Generator: Adobe Illustrator 20.0.0, SVG Export Plug-In . SVG Version: 6.00 Build 0)  -->
<svg version="1.1" id="Layer_1" xmlns="http://www.w3.org/2000/svg" xmlns:xlink="http://www.w3.org/1999/xlink" x="0px" y="0px"
	 viewBox="0 0 48 48" style="enable-background:new 0 0 48 48;" xml:space="preserve">
<g>
	<circle cx="22.5" cy="15.5" r="3.5"/>
	<path d="M43.3,36c0.1-0.2,0.3-0.3,0.4-0.5c0,0,0,0,0-0.1c0.2-0.4,0.3-0.8,0.3-1.2c0-1.6-4.8-9.6-4.8-9.6L41,22c0,0-1-1.8-3.1-3
		c0.2-1.6-0.9-3-0.9-3s-0.1,1.2-1,2.2c-0.3-0.1-0.7-0.2-1-0.2c0-1.8-0.9-3.1-0.9-3.1s0.4,1.5-1,3c-7.1,0.3-10.8,3.6-13,7v-1.9
		c0.2-1.1-0.2-2.2-1-3.1c-1.4-1.4-3.6-1.3-4.9,0.1l-6.6,7.4c-0.7,0.7-1.9,2.3-1.3,4.1c-0.8-0.1-1.5-0.2-2.1-0.4V44h6.9h4.2H29
		c0.9-2.3,2-5.5,2-10c0,0,0-3.4,0-5c0,0,2.4,4,4,4s4,2,4,2s0.4,2,2,2C41.9,37,42.7,36.6,43.3,36C43.3,36,43.3,36,43.3,36z M17,31
		c-0.1,0.2-0.2,0.4-0.2,0.5c-1.2,0.3-2.7,0.4-4.2,0.5l4.4-5v2.5c0,0.3,0.1,0.6,0.3,0.9C17.2,30.6,17.1,30.8,17,31z"/>
	<circle cx="10" cy="6" r="2"/>
	<circle cx="6" cy="9" r="2"/>
	<circle cx="14" cy="9" r="2"/>
	<circle cx="12.5" cy="13.5" r="2"/>
	<circle cx="7.5" cy="13.5" r="2"/>
</g>
</svg>
