<?xml version="1.0" encoding="utf-8"?>
<!-- Generator: Adobe Illustrator 20.0.0, SVG Export Plug-In . SVG Version: 6.00 Build 0)  -->
<svg version="1.1" id="Layer_1" xmlns="http://www.w3.org/2000/svg" xmlns:xlink="http://www.w3.org/1999/xlink" x="0px" y="0px"
	 viewBox="0 0 48 48" style="enable-background:new 0 0 48 48;" xml:space="preserve">
<path d="M31,12c0-4.8-2-5-2-9c-1.3,0.8-1.4,1.6-2,2c-0.9-1.1-1.4-3-1-5c0,0-10,3.4-10,11c0,4.8,6,7,6,7h-4v2h0.8l1.2,7h1v1
	c0,0,1,1,1,4v11v3v1h1v1h2v-1h1v-1v-3V32c0-3,1-4,1-4v-1h1l1.2-7H30v-2h-4C28.8,17.1,31,15,31,12z"/>
</svg>
