<?xml version="1.0" encoding="utf-8"?>
<!-- Generator: Adobe Illustrator 16.2.1, SVG Export Plug-In . SVG Version: 6.00 Build 0)  -->
<!DOCTYPE svg PUBLIC "-//W3C//DTD SVG 1.1//EN" "http://www.w3.org/Graphics/SVG/1.1/DTD/svg11.dtd">
<svg version="1.1" id="Layer_1" xmlns="http://www.w3.org/2000/svg" xmlns:xlink="http://www.w3.org/1999/xlink" x="0px" y="0px"
	 width="512px" height="512px" viewBox="0 0 512 512" style="enable-background:new 0 0 512 512;" xml:space="preserve">
<path d="M153.7,396.6L153.7,396.6L153.7,396.6L-13.5,222.5c-4.2-4.3-4.1-11.4,0.2-15.8l29.9-30.6c4.3-4.4,11.3-4.5,15.5-0.2
	l204.2,212.7c2.2,2.2,3.2,5.2,3,8.1c0.1,3-0.9,5.9-3,8.1L32.1,617.4c-4.2,4.3-11.2,4.2-15.5-0.2l-29.9-30.6
	c-4.3-4.4-4.4-11.5-0.2-15.8L153.7,396.6z"/>
<path d="M345.7,396.6L345.7,396.6L345.7,396.6L178.5,222.5c-4.2-4.3-4.1-11.4,0.2-15.8l29.9-30.6c4.3-4.4,11.3-4.5,15.5-0.2
	l204.2,212.7c2.2,2.2,3.2,5.2,3,8.1c0.1,3-0.9,5.9-3,8.1L224.1,617.4c-4.2,4.3-11.2,4.2-15.5-0.2l-29.9-30.6
	c-4.3-4.4-4.4-11.5-0.2-15.8L345.7,396.6z"/>
</svg>
