<?xml version="1.0" encoding="utf-8"?>
<!-- Generator: Adobe Illustrator 19.2.1, SVG Export Plug-In . SVG Version: 6.00 Build 0)  -->
<svg version="1.1" id="Layer_1" xmlns="http://www.w3.org/2000/svg" xmlns:xlink="http://www.w3.org/1999/xlink" x="0px" y="0px"
	 viewBox="0 0 512 512" style="enable-background:new 0 0 512 512;" xml:space="preserve">
<g>
	<g>
		<path d="M256,83C141.1,83,48,176.1,48,291s93.1,208,208,208s208-93.1,208-208S370.9,83,256,83z M256,481.7
			c-105.1,0-190.7-85.5-190.7-190.7c0-105.1,85.5-190.7,190.7-190.7c105.1,0,190.7,85.5,190.7,190.7
			C446.7,396.1,361.1,481.7,256,481.7z"/>
	</g>
</g>
<g>
	<g>
		<path d="M256,131c-88.4,0-160,71.6-160,160s71.6,160,160,160s160-71.6,160-160S344.4,131,256,131z"/>
	</g>
</g>
</svg>
