<?xml version="1.0" encoding="utf-8"?>
<!-- Generator: Adobe Illustrator 20.0.0, SVG Export Plug-In . SVG Version: 6.00 Build 0)  -->
<svg version="1.1" id="Layer_1" xmlns="http://www.w3.org/2000/svg" xmlns:xlink="http://www.w3.org/1999/xlink" x="0px" y="0px"
	 viewBox="0 0 512 512" style="enable-background:new 0 0 512 512;" xml:space="preserve">
<path d="M192.2,182.6c0.6,6.2-4.4,7.2-1.4,20.3c5.7,24.9,7.8,14.5,10.4,30.1c2.6,15.2,5.8,22.8,8.7,27.5l110-72.7
	c-0.6-1.6-1-3.1-0.8-5.3c0.6-6.2,1.2-11.8,2.3-24.6c1.4-15.8-13.3-57.3-65.8-57.3s-67.2,41.5-65.7,57.4
	C191,170.7,191.6,176.4,192.2,182.6z"/>
<path d="M492.9,246c-0.5-37-9.4-72.6-26-104.5c-11.3-21.8-26.2-41.9-44.3-59.6c-1.4-1.3-2.8-2.7-4.2-4c-0.4-0.4-0.9-0.8-1.4-1.2
	c-1-0.9-1.9-1.8-2.9-2.6c-0.6-0.5-1.1-1-1.7-1.5c-0.9-0.8-1.8-1.5-2.6-2.3c-0.6-0.5-1.3-1-1.9-1.6c-0.8-0.7-1.7-1.4-2.5-2.1
	c-0.7-0.5-1.3-1.1-2-1.6c-0.8-0.6-1.7-1.3-2.5-1.9c-0.7-0.5-1.4-1-2.1-1.6c-0.8-0.6-1.6-1.2-2.5-1.8c-0.7-0.5-1.4-1-2.2-1.5
	c-0.8-0.6-1.6-1.2-2.5-1.7c-0.7-0.5-1.5-1-2.2-1.5c-0.8-0.6-1.6-1.1-2.5-1.7c-0.8-0.5-1.5-1-2.3-1.5s-1.6-1.1-2.5-1.6
	c-0.8-0.5-1.6-0.9-2.4-1.4s-1.7-1-2.5-1.5s-1.6-0.9-2.4-1.4s-1.7-1-2.5-1.4s-1.6-0.9-2.4-1.3c-0.8-0.5-1.7-0.9-2.5-1.4
	c-0.8-0.4-1.6-0.8-2.5-1.3c-0.8-0.4-1.7-0.9-2.6-1.3c-0.8-0.4-1.7-0.8-2.5-1.2c-0.9-0.4-1.7-0.8-2.6-1.2c-0.8-0.4-1.7-0.8-2.5-1.1
	c-0.9-0.4-1.7-0.8-2.6-1.2s-1.7-0.7-2.6-1.1c-0.9-0.4-1.7-0.7-2.6-1.1c-0.9-0.3-1.7-0.7-2.6-1s-1.8-0.7-2.6-1
	c-0.9-0.3-1.7-0.6-2.6-1c-0.9-0.3-1.8-0.6-2.7-1c-0.9-0.3-1.8-0.6-2.6-0.9c-0.9-0.3-1.8-0.6-2.7-0.9c-0.9-0.3-1.8-0.6-2.7-0.8
	c-0.9-0.3-1.8-0.6-2.7-0.8c-0.9-0.3-1.8-0.5-2.7-0.8c-0.9-0.3-1.8-0.5-2.7-0.8c-0.9-0.2-1.8-0.5-2.7-0.7c-0.9-0.2-1.8-0.5-2.8-0.7
	c-0.9-0.2-1.8-0.4-2.7-0.6c-0.9-0.2-1.9-0.4-2.8-0.6s-1.8-0.4-2.7-0.6c-0.9-0.2-1.9-0.4-2.8-0.6s-1.8-0.3-2.7-0.5
	c-0.9-0.2-1.9-0.3-2.8-0.5s-1.8-0.3-2.8-0.4c-0.9-0.1-1.9-0.3-2.9-0.4c-0.9-0.1-1.8-0.3-2.8-0.4s-1.9-0.2-2.9-0.4
	c-0.9-0.1-1.9-0.2-2.8-0.3c-1-0.1-1.9-0.2-2.9-0.3c-0.9-0.1-1.9-0.2-2.8-0.2c-1-0.1-1.9-0.1-2.9-0.2c-0.9-0.1-1.9-0.1-2.8-0.2
	c-1-0.1-2-0.1-2.9-0.1s-1.9-0.1-2.8-0.1c-1,0-2-0.1-2.9-0.1s-1.9,0-2.8,0c-1.5,0-2.9,0-4.4,0l0,0c-9.7,0.1-19.4,0.8-28.9,2.1
	c-13.3,1.8-26.3,4.7-39,8.7c-3.6,1.1-7.2,2.4-10.7,3.7C157,37.8,137,48.8,118.7,62.7c-9.1,7-17.8,14.6-26,23
	c-9.5,9.8-18.1,20.2-25.6,31.2c-2.2,3.1-4.2,6.3-6.2,9.6c-5,8.1-9.5,16.5-13.4,25c-0.8,1.7-1.6,3.4-2.3,5.2
	c-2.2,5.2-4.3,10.5-6.1,15.9s-3.5,10.8-4.9,16.3c-1,3.7-1.8,7.4-2.6,11.1c-0.8,3.7-1.5,7.5-2.1,11.2c-0.3,1.9-0.6,3.8-0.8,5.7
	c-0.5,3.8-0.9,7.6-1.3,11.4c-0.7,7.7-0.9,15.4-0.8,23.2c0.1,9.7,0.8,19.4,2.1,28.9c1.5,11.4,3.9,22.6,7.1,33.5
	c1.1,3.6,2.2,7.3,3.4,10.8c2.5,7.2,5.3,14.2,8.4,21.1c3.1,6.9,6.6,13.6,10.5,20.1c2.9,4.9,5.9,9.7,9.2,14.4c2.2,3.1,4.4,6.2,6.7,9.3
	c2.3,3,4.7,6,7.2,9c1.2,1.5,2.5,2.9,3.8,4.4c2.6,2.9,5.2,5.7,7.9,8.5c1.4,1.4,2.7,2.8,4.1,4.1c1.4,1.3,2.8,2.7,4.2,4
	c0.5,0.4,1,0.9,1.5,1.3c0.9,0.9,1.9,1.7,2.8,2.5c0.6,0.5,1.2,1,1.8,1.5c0.9,0.7,1.7,1.5,2.6,2.2c0.6,0.5,1.3,1.1,1.9,1.6
	c0.8,0.7,1.7,1.4,2.5,2c0.7,0.5,1.4,1.1,2,1.6c0.8,0.6,1.6,1.3,2.5,1.9c0.7,0.5,1.4,1,2.1,1.6c0.8,0.6,1.6,1.2,2.5,1.8
	c0.7,0.5,1.5,1,2.2,1.5c0.8,0.6,1.6,1.2,2.5,1.7c0.7,0.5,1.5,1,2.2,1.5c0.8,0.6,1.6,1.1,2.5,1.7c0.8,0.5,1.5,1,2.3,1.5
	s1.6,1.1,2.5,1.6c0.8,0.5,1.6,1,2.4,1.4c0.8,0.5,1.7,1,2.5,1.5s1.6,0.9,2.4,1.4c0.8,0.5,1.7,1,2.5,1.4s1.6,0.9,2.4,1.3
	c0.8,0.5,1.7,0.9,2.5,1.4c0.8,0.4,1.6,0.8,2.5,1.3c0.8,0.4,1.7,0.9,2.6,1.3c0.8,0.4,1.7,0.8,2.5,1.2c0.9,0.4,1.7,0.8,2.6,1.2
	c0.8,0.4,1.7,0.8,2.5,1.1c0.9,0.4,1.7,0.8,2.6,1.2c0.9,0.4,1.7,0.7,2.6,1.1c0.9,0.4,1.7,0.7,2.6,1.1c0.9,0.3,1.7,0.7,2.6,1
	c0.9,0.3,1.8,0.7,2.6,1c0.9,0.3,1.7,0.6,2.6,1c0.9,0.3,1.8,0.6,2.7,1c0.9,0.3,1.8,0.6,2.6,0.9c0.9,0.3,1.8,0.6,2.7,0.9
	s1.8,0.6,2.7,0.8c0.9,0.3,1.8,0.6,2.7,0.8c0.9,0.3,1.8,0.5,2.7,0.8s1.8,0.5,2.7,0.8c0.9,0.2,1.8,0.5,2.7,0.7s1.8,0.5,2.8,0.7
	c0.9,0.2,1.8,0.4,2.7,0.6s1.9,0.4,2.8,0.6c0.9,0.2,1.8,0.4,2.7,0.6s1.9,0.4,2.8,0.6c0.9,0.2,1.8,0.3,2.7,0.5s1.9,0.3,2.8,0.5
	c0.9,0.2,1.8,0.3,2.8,0.4c0.9,0.1,1.9,0.3,2.9,0.4c0.9,0.1,1.8,0.3,2.8,0.4s1.9,0.2,2.9,0.4c0.9,0.1,1.9,0.2,2.8,0.3
	c1,0.1,1.9,0.2,2.9,0.3c0.9,0.1,1.9,0.2,2.8,0.2c1,0.1,1.9,0.1,2.9,0.2c0.9,0.1,1.9,0.1,2.8,0.2c1,0.1,2,0.1,2.9,0.1
	s1.9,0.1,2.8,0.1c1,0,2,0.1,2.9,0.1s1.9,0,2.8,0c1.5,0,2.9,0,4.4,0l0,0c9.7-0.1,19.4-0.8,28.9-2.1c13.3-1.8,26.3-4.7,39-8.7
	c3.6-1.1,7.2-2.4,10.7-3.7c5.3-2,10.6-4.1,15.7-6.5c3.4-1.6,6.8-3.2,10.2-5c13.4-7,26.2-15.3,38.2-24.9c3-2.4,5.9-4.9,8.8-7.4
	c4.3-3.8,8.5-7.8,12.6-12c2.7-2.8,5.4-5.6,7.9-8.5c2.6-2.9,5-5.8,7.4-8.8s4.7-6,7-9.1s4.4-6.2,6.5-9.4c5.2-8,9.9-16.2,14-24.7
	c10-20.4,16.9-42.2,20.5-64.8c0.3-1.9,0.6-3.8,0.8-5.7c0.5-3.9,1-7.9,1.3-11.9c0.3-3.6,0.5-7.2,0.7-10.8c0.1-2,0.1-4.1,0.2-6.1
	C492.9,249.9,492.9,248,492.9,246z M84.9,331.5c-0.5-1-1-2-1.4-3.1c-0.9-2-1.8-4.1-2.7-6.2c-1.3-3.1-2.5-6.3-3.6-9.5
	c-1.5-4.3-2.9-8.6-4.1-13c-0.9-3.3-1.7-6.7-2.4-10c-1.9-9-3.3-18.3-3.9-27.7c-0.2-3.5-0.4-7.1-0.4-10.7c-0.1-11.7,0.8-23.1,2.6-34.2
	c0.3-1.6,0.5-3.2,0.9-4.7c0.9-4.7,2-9.4,3.2-14c0.8-3.1,1.7-6.1,2.7-9.1c2.4-7.5,5.3-14.8,8.6-21.9c0.7-1.4,1.3-2.8,2-4.2
	c2.8-5.6,5.8-11,9.1-16.3c1.6-2.6,3.4-5.2,5.1-7.8c0.9-1.3,1.8-2.5,2.7-3.8c2.7-3.8,5.6-7.4,8.6-11c2-2.4,4.1-4.7,6.2-6.9
	c2.1-2.3,4.3-4.5,6.5-6.6c4.4-4.3,9.1-8.4,13.9-12.3c2.4-1.9,4.9-3.8,7.4-5.7c10-7.3,20.8-13.7,32.1-19c5.7-2.7,11.5-5,17.5-7.1
	c1.5-0.5,3-1,4.5-1.5c7.5-2.4,15.3-4.4,23.2-6c6.3-1.2,12.8-2.1,19.3-2.7c4.9-0.4,9.8-0.7,14.8-0.7c0.8,0,1.6,0,2.4,0
	c0.7,0,1.3,0,2,0c1,0,2,0,3.1,0s2.2,0.1,3.2,0.1s2,0.1,3,0.1c1.1,0.1,2.2,0.1,3.2,0.2c1,0.1,2,0.1,2.9,0.2c1.1,0.1,2.2,0.2,3.3,0.3
	c1,0.1,1.9,0.2,2.9,0.3c1.1,0.1,2.2,0.3,3.3,0.4c0.9,0.1,1.9,0.3,2.8,0.4c1.1,0.2,2.2,0.4,3.3,0.5c0.9,0.2,1.8,0.3,2.7,0.5
	c1.1,0.2,2.2,0.4,3.3,0.7c0.9,0.2,1.8,0.4,2.7,0.6c1.1,0.2,2.2,0.5,3.3,0.8c0.9,0.2,1.8,0.4,2.6,0.6c1.1,0.3,2.2,0.6,3.3,0.9
	c0.9,0.2,1.7,0.5,2.6,0.7c1.1,0.3,2.2,0.6,3.2,1c0.8,0.3,1.7,0.5,2.5,0.8c1.1,0.3,2.1,0.7,3.2,1.1c0.8,0.3,1.6,0.6,2.5,0.8
	c1.1,0.4,2.1,0.8,3.2,1.2c0.8,0.3,1.6,0.6,2.4,0.9c1.1,0.4,2.1,0.9,3.2,1.3c0.8,0.3,1.6,0.6,2.3,1c1.1,0.5,2.1,0.9,3.1,1.4
	c0.8,0.3,1.5,0.7,2.3,1c1,0.5,2.1,1,3.1,1.5c0.7,0.4,1.5,0.7,2.2,1.1c1,0.5,2,1.1,3.1,1.6c0.7,0.4,1.5,0.8,2.2,1.2
	c1,0.6,2,1.1,3,1.7c0.7,0.4,1.4,0.8,2.1,1.2c1,0.6,2,1.2,3,1.8c0.7,0.4,1.4,0.8,2.1,1.3c1,0.6,1.9,1.2,2.9,1.9
	c0.7,0.4,1.4,0.9,2,1.3c1,0.6,1.9,1.3,2.9,2c0.7,0.5,1.3,0.9,2,1.4c0.9,0.7,1.9,1.4,2.8,2c0.7,0.5,1.3,1,2,1.4
	c0.9,0.7,1.8,1.4,2.7,2.1c0.6,0.5,1.3,1,1.9,1.5c0.9,0.7,1.8,1.5,2.7,2.2c0.6,0.5,1.2,1,1.9,1.5c0.9,0.8,1.7,1.5,2.6,2.3
	c0.6,0.5,1.2,1.1,1.8,1.6c0.8,0.8,1.7,1.6,2.5,2.4c0.6,0.6,1.2,1.1,1.8,1.7c0.8,0.8,1.6,1.6,2.4,2.4c0.6,0.6,1.2,1.1,1.7,1.7
	c0.8,0.8,1.6,1.7,2.4,2.5c0.6,0.6,1.1,1.2,1.7,1.8c0.8,0.9,1.5,1.7,2.3,2.6c0.5,0.6,1.1,1.2,1.6,1.8c0.8,0.9,1.5,1.8,2.3,2.7
	c0.5,0.6,1,1.2,1.5,1.8c0.8,0.9,1.5,1.9,2.2,2.8c0.5,0.6,0.9,1.2,1.4,1.8c0.8,1,1.6,2.1,2.3,3.2c0.4,0.5,0.8,1,1.2,1.6
	c1.1,1.5,2.2,3.1,3.2,4.6c0,0.1,0.1,0.1,0.2,0.2L329,202.5l-9.6,6.3l-100.9,66.7L98.1,354.9l0,0c-2.1-3.2-4.1-6.4-6-9.8
	c-0.5-0.9-1-1.8-1.5-2.7c-0.9-1.6-1.8-3.2-2.6-4.9C86.9,335.5,85.9,333.5,84.9,331.5z M452.1,266.2c-0.3,3.2-0.7,6.5-1.1,9.7
	c-1.4,9.6-3.4,19-6.1,28.1c-0.9,3-1.9,6-2.9,9c-1.6,4.5-3.3,8.8-5.2,13.1c-3.1,7.2-6.7,14.1-10.7,20.8c-1.6,2.7-3.2,5.3-4.9,7.9
	c-4.5,6.8-9.4,13.4-14.7,19.6c-5.8,6.7-12,13.1-18.6,18.9c-4.6,4.1-9.5,8-14.5,11.7s-10.2,7.1-15.6,10.3
	C329.7,432,297,441.7,262,442.1c-0.8,0-1.6,0-2.4,0c-0.4,0-0.9,0-1.3,0c-0.8,0-1.6,0-2.4,0c-0.9,0-1.7,0-2.6-0.1
	c-0.8,0-1.6-0.1-2.4-0.1c-0.8,0-1.7-0.1-2.5-0.1s-1.6-0.1-2.4-0.2c-0.8-0.1-1.7-0.1-2.5-0.2s-1.6-0.1-2.4-0.2
	c-0.8-0.1-1.7-0.2-2.5-0.3c-0.8-0.1-1.6-0.2-2.3-0.3c-0.8-0.1-1.7-0.2-2.5-0.3c-0.8-0.1-1.5-0.2-2.3-0.3c-0.8-0.1-1.7-0.3-2.5-0.4
	s-1.5-0.2-2.3-0.4c-0.8-0.1-1.7-0.3-2.5-0.5c-0.7-0.1-1.5-0.3-2.2-0.4c-0.8-0.2-1.7-0.3-2.5-0.5c-0.7-0.2-1.5-0.3-2.2-0.5
	c-0.8-0.2-1.7-0.4-2.5-0.6c-0.7-0.2-1.4-0.3-2.1-0.5c-0.8-0.2-1.7-0.4-2.5-0.7c-0.7-0.2-1.4-0.4-2.1-0.6c-0.8-0.2-1.7-0.5-2.5-0.7
	c-0.7-0.2-1.4-0.4-2.1-0.6c-0.8-0.3-1.7-0.5-2.5-0.8c-0.7-0.2-1.4-0.4-2-0.7c-0.8-0.3-1.7-0.6-2.5-0.9c-0.7-0.2-1.3-0.5-2-0.7
	c-0.8-0.3-1.6-0.6-2.5-0.9c-0.7-0.2-1.3-0.5-2-0.7c-0.8-0.3-1.6-0.7-2.5-1c-0.6-0.3-1.3-0.5-1.9-0.8c-0.8-0.3-1.6-0.7-2.4-1
	c-0.6-0.3-1.3-0.5-1.9-0.8c-0.8-0.4-1.6-0.7-2.4-1.1c-0.6-0.3-1.2-0.6-1.9-0.9c-0.8-0.4-1.6-0.8-2.4-1.2c-0.6-0.3-1.2-0.6-1.8-0.9
	c-0.8-0.4-1.6-0.8-2.4-1.2c-0.6-0.3-1.2-0.6-1.8-0.9c-0.8-0.4-1.6-0.9-2.3-1.3c-0.6-0.3-1.2-0.6-1.8-1c-0.8-0.4-1.5-0.9-2.3-1.4
	c-0.6-0.3-1.2-0.7-1.7-1c-0.8-0.5-1.5-0.9-2.3-1.4c-0.6-0.4-1.1-0.7-1.7-1.1c-0.8-0.5-1.5-1-2.2-1.5c-0.6-0.4-1.1-0.7-1.7-1.1
	c-0.7-0.5-1.5-1-2.2-1.5c-0.5-0.4-1.1-0.7-1.6-1.1c-0.7-0.5-1.5-1-2.2-1.6c-0.5-0.4-1.1-0.8-1.6-1.2c-0.7-0.5-1.4-1.1-2.2-1.6
	c-0.5-0.4-1-0.8-1.6-1.2c-0.7-0.6-1.4-1.1-2.1-1.7c-0.5-0.4-1-0.8-1.5-1.2c-0.7-0.6-1.4-1.2-2.1-1.8c-0.5-0.4-1-0.8-1.4-1.2
	c-0.7-0.6-1.4-1.3-2.2-1.9c-0.4-0.4-0.9-0.8-1.3-1.2c-0.8-0.7-1.5-1.4-2.3-2.1c-0.4-0.3-0.7-0.7-1.1-1c-1.1-1-2.1-2-3.2-3.1
	c-0.1-0.1-0.1-0.1-0.2-0.2l0,0l16.5-10.9l153.3-101.4l145.7-96.3c0.5,1.3,1.1,2.7,1.6,4c1.5,4.1,2.9,8.2,4.2,12.4
	c0.4,1.4,0.8,2.8,1.2,4.2c0.8,2.8,1.5,5.7,2.1,8.5c2.9,12.9,4.5,26.3,4.7,40C452.9,253.2,452.7,259.8,452.1,266.2z"/>
<path d="M261.8,425.1c47-0.6,91-19.5,123.9-53.2c1-1,2-2.1,3-3.1c3.3-3.5,6.4-7.2,9.3-10.9c-2.1-8.1-14.4-18.7-60.7-35.7
	c-39.3-14.4-44.1-11.1-44.5-27.7L173,373.7L151.4,388c30.8,24.1,68.5,37.2,108.2,37.2C260.3,425.1,261.1,425.1,261.8,425.1z"/>
</svg>
