<?xml version="1.0" encoding="utf-8"?>
<!-- Generator: Adobe Illustrator 20.0.0, SVG Export Plug-In . SVG Version: 6.00 Build 0)  -->
<svg version="1.1" id="Layer_1" xmlns="http://www.w3.org/2000/svg" xmlns:xlink="http://www.w3.org/1999/xlink" x="0px" y="0px"
	 viewBox="0 0 512 512" style="enable-background:new 0 0 512 512;" xml:space="preserve">
<path d="M256,464c114.9,0,208-93.1,208-208S370.9,48,256,48S48,141.1,48,256S141.1,464,256,464z"/>
<path d="M256,28c125.9,0,228,102.1,228,228S381.9,484,256,484S28,381.9,28,256S130.1,28,256,28 M256,3c-34.2,0-67.3,6.7-98.5,19.9
	c-30.1,12.7-57.2,31-80.4,54.2s-41.5,50.3-54.2,80.4C9.7,188.7,3,221.8,3,256s6.7,67.3,19.9,98.5c12.7,30.1,31,57.2,54.2,80.4
	s50.3,41.5,80.4,54.2c31.2,13.2,64.3,19.9,98.5,19.9s67.3-6.7,98.5-19.9c30.1-12.7,57.2-31,80.4-54.2s41.5-50.3,54.2-80.4
	c13.2-31.2,19.9-64.3,19.9-98.5s-6.7-67.3-19.9-98.5c-12.7-30.1-31-57.2-54.2-80.4s-50.3-41.5-80.4-54.2C323.3,9.7,290.2,3,256,3
	L256,3z"/>
</svg>
