<?xml version="1.0" encoding="utf-8"?>
<!-- Generator: Adobe Illustrator 20.0.0, SVG Export Plug-In . SVG Version: 6.00 Build 0)  -->
<svg version="1.1" id="Layer_1" xmlns="http://www.w3.org/2000/svg" xmlns:xlink="http://www.w3.org/1999/xlink" x="0px" y="0px"
	 viewBox="0 0 512 512" style="enable-background:new 0 0 512 512;" xml:space="preserve">
<path d="M341.2,95h-56.3v112h56.3V95z M369.1,207c0,7.7-2.7,14.2-8.2,19.7s-12,8.2-19.7,8.2H172.9c-7.7,0-14.2-2.7-19.7-8.2
	c-5.5-5.5-8.2-12-8.2-19.7V67.1h224V207H369.1z M401.8,39.2H89.3c-15.3,0-28.5,5.5-39.6,16.4C38.5,66.6,33,79.7,33,95v335.5
	c0,15.7,5.6,29,16.7,39.9s24.3,16.4,39.6,16.4h335.5c15.3,0,28.5-5.5,39.6-16.4s16.7-24.2,16.7-39.9V126.7L401.8,39.2z"/>
</svg>
