<?xml version="1.0" encoding="utf-8"?>
<!-- Generator: Adobe Illustrator 20.0.0, SVG Export Plug-In . SVG Version: 6.00 Build 0)  -->
<svg version="1.1" id="Layer_1" xmlns="http://www.w3.org/2000/svg" xmlns:xlink="http://www.w3.org/1999/xlink" x="0px" y="0px"
	 viewBox="0 0 48 48" style="enable-background:new 0 0 48 48;" xml:space="preserve">
<path d="M39.5,39.3c0,2.1-1.7,3.8-3.8,3.8c-7.8,0-15.6,0-23.4,0c-2,0-3.5-1.2-3.9-3.2c-0.1-0.5-0.1-1-0.1-1.6c0-8.3,0-16.7,0-25
	c0-2,1.4-3.7,3.4-4c1-0.1,2,0,3.1,0c0,0.1,0,0.1,0,0.2c0,1.2,0,2.4,0,3.7c-0.9,0-1.7,0-2.6,0c0,8.7,0,17.3,0,25.9
	c7.8,0,15.5,0,23.3,0c0-8.6,0-17.2,0-25.9c-0.9,0-1.7,0-2.5,0c0-1.3,0-2.6,0-3.9c0.3,0,0.5,0,0.8,0c0.8,0,1.7,0,2.5,0.1
	c1.8,0.3,3.1,1.9,3.1,3.8c0,5.6,0,11.2,0,16.7C39.5,33.1,39.5,36.2,39.5,39.3z"/>
<path d="M31.4,9.3c-0.4-0.1-0.9-0.3-1.3-0.4c-1.1-0.2-1.8-0.9-2.4-1.9c-1.8-2.9-5.8-2.9-7.7,0c-0.2,0.4-0.4,0.7-0.7,1.1
	c-0.1,0.2-0.3,0.3-0.5,0.4C18,8.8,17.2,9,16.4,9.3c-0.2,0.1-0.3,0.2-0.3,0.4c0,1.7,0,3.4,0,5c0,0.8,0.4,1.2,1.2,1.2
	c2.2,0,4.4,0,6.6,0c0,0,0,0,0,0c2.2,0,4.4,0,6.6,0c0.7,0,1.1-0.4,1.1-1.1c0-1.7,0-3.4,0-5.1C31.7,9.5,31.6,9.4,31.4,9.3z M23.9,11.6
	c-1.3,0-2.2-0.9-2.2-2.2c0-1.2,1-2.2,2.2-2.2c1.2,0,2.1,1,2.1,2.2C26,10.6,25.1,11.6,23.9,11.6z"/>
<g>
	<path d="M16.1,18.6c0,2.6,0,5.2,0,7.7c2.6,0,5.1,0,7.7,0c0-2.6,0-5.2,0-7.7C21.3,18.6,18.7,18.6,16.1,18.6z M22.6,25
		c-1.7,0-3.4,0-5.1,0c0-1.7,0-3.4,0-5.1c1.7,0,3.4,0,5.1,0C22.6,21.6,22.6,23.3,22.6,25z"/>
</g>
<path d="M16.1,36.7c2.6,0,5.2,0,7.7,0c0-1.2,0-2.3,0-3.5c-0.6,0.7-1.6,1.1-1.2,2.2c-1.8,0-3.5,0-5.2,0c0-1.7,0-3.4,0-5.2
	c0.2,0,0.3,0,0.4,0c1,0,2,0,3,0c0.1,0,0.3,0,0.4-0.1c0.4-0.4,0.8-0.8,1.2-1.2c-2.2,0-4.2,0-6.3,0C16.1,31.5,16.1,34.1,16.1,36.7z"/>
<path d="M24.6,28c-1.3,1.3-2.7,2.7-4.1,4.1c-0.4-0.5-0.9-0.9-1.3-1.4c-0.5,0.5-0.9,0.9-1.4,1.4c0.9,0.9,1.8,1.8,2.7,2.7
	c1.8-1.8,3.6-3.6,5.4-5.4C25.6,29,25.2,28.5,24.6,28z"/>
<path d="M26.5,22.4c0,0.4,0,0.8,0,1.3c1.7,0,3.4,0,5.1,0c0-0.4,0-0.8,0-1.3C29.9,22.4,28.2,22.4,26.5,22.4z"/>
<path d="M26.5,34.1c1.7,0,3.4,0,5.1,0c0-0.4,0-0.8,0-1.2c-1.7,0-3.4,0-5.1,0C26.5,33.2,26.5,33.6,26.5,34.1z"/>
</svg>
