<?xml version="1.0" encoding="utf-8"?>
<!-- Generator: Adobe Illustrator 20.0.0, SVG Export Plug-In . SVG Version: 6.00 Build 0)  -->
<svg version="1.1" id="Layer_1" xmlns="http://www.w3.org/2000/svg" xmlns:xlink="http://www.w3.org/1999/xlink" x="0px" y="0px"
	 viewBox="0 0 48 48" style="enable-background:new 0 0 48 48;" xml:space="preserve">
<g>
	<circle cx="38.5" cy="14.5" r="3.5"/>
	<path d="M34,21.4v-1.9c0-0.1,0-0.2,0-0.3c0.1-0.6,0.1-1.2-0.1-1.7c-0.2-0.4-0.4-0.8-0.7-1.2l-3.3-7.4C29.6,8.3,29.1,8,28.5,8h-8
		C19.7,8,19,8.7,19,9.5s0.7,1.5,1.5,1.5h7l0.6,3l0,0l0.2,1.1l0.1,0.5l-10.1,3.6c-1.3,0.4-2.1,1.6-2.3,2.8H16l-1.8,8.9l-7.5,6.6
		c-0.8,0.7-0.9,2-0.2,2.8C6.9,40.8,7.4,41,8,41c0.5,0,0.9-0.2,1.3-0.5l4.7-4.1c0,0,0,0,0,0l1.7-1.5c0.1,0,0.2,0,0.4,0h10
		c0.7,0,1.4-0.4,1.8-1.1c0.3-0.7,0.3-1.5-0.1-2.1l-4-6.9l0,0l-0.1-0.2l3.8-1.3c-0.2,0.3-0.3,0.7-0.3,1c0,1.7,2.1,3.1,4.1,3.4
		c0.2,0.6,0.8,1.1,1.4,1.1c0.8,0,1.4-0.6,1.5-1.4c1.6-0.6,3-1.8,3-3.1C37,23.1,35.6,22,34,21.4z M18.4,31l0.9-3.3l2.8,3.3H18.4z"/>
</g>
</svg>
