<?xml version="1.0" encoding="utf-8"?>
<!-- Generator: Adobe Illustrator 20.0.0, SVG Export Plug-In . SVG Version: 6.00 Build 0)  -->
<svg version="1.1" id="Layer_1" xmlns="http://www.w3.org/2000/svg" xmlns:xlink="http://www.w3.org/1999/xlink" x="0px" y="0px"
	 viewBox="0 0 48 48" style="enable-background:new 0 0 48 48;" xml:space="preserve">
<style type="text/css">
	.st0{fill:#231F20;}
</style>
<g>
	<path class="st0" d="M44.2,38.4L38,34l0-8c0-0.1,0-0.1,0-0.2c0-0.2,0-0.3,0-0.5c0-0.1,0-0.2,0-0.3c0,0,0-0.1,0-0.1
		c0-0.1-0.1-0.3-0.1-0.5c0,0,0-0.1,0-0.1c0-0.2-0.1-0.4-0.2-0.6c0,0,0-0.1,0-0.1c-0.1-0.2-0.2-0.5-0.3-0.8c0,0,0-0.1,0-0.1l0,0
		c-0.1-0.2-0.2-0.5-0.3-0.8c0,0,0,0,0,0c-0.1-0.3-0.3-0.5-0.4-0.8c0,0,0,0,0,0c-0.3-0.6-0.6-1.2-1-1.8c0-0.1-0.1-0.1-0.1-0.2
		c-0.1-0.2-0.3-0.5-0.5-0.7c-0.1-0.1-0.1-0.2-0.2-0.3c-0.2-0.2-0.3-0.4-0.5-0.7c-0.1-0.1-0.2-0.2-0.3-0.4c-0.2-0.2-0.4-0.5-0.6-0.7
		c-0.1-0.1-0.2-0.2-0.3-0.3c-0.3-0.3-0.6-0.7-0.9-1l3.3-3.5l5.1,4.4c0.7,0.5,1.6,0.3,2.1-0.3c0.5-0.7,0.3-1.6-0.3-2.1l-6-5
		c-0.5-0.4-1.2-0.4-1.7,0l-2.6,2l-5.9,4.6l-6,4.7l-4.6-4.1c-0.3-0.3-0.7-0.4-1.1-0.4l-0.6-0.6c0.4-1.1,0.1-2.5-1-3.4
		c-1.3-1.2-3.2-1.3-4.2-0.2c-1,1.1-0.8,3,0.5,4.2c1,0.9,2.3,1.2,3.3,0.8l0.6,0.6c0,0.4,0.1,0.8,0.4,1.1l5.5,5
		c0.3,0.3,0.7,0.4,1.1,0.4c0.3,0,0.6-0.1,0.9-0.3l2.8-1.8l0,0l0.6-0.4l2.2-1.5c2.5,2.5,4,4.4,4.4,6.1l0,0c0,0,0,0,0,0l-4,2.5l0,0
		l-2.5,1.6c-0.5,0.2-1,0.6-1.2,1.1l-4,9c-0.4,1,0.1,2.2,1.1,2.6C20.5,42,20.8,42,21,42c0.8,0,1.5-0.5,1.9-1.3l3.7-8.2l2.6-1l0,0
		l4.3-1.8l0.2,2.2h0l0.3,3c0,0.6,0.3,1.2,0.8,1.6l7,5c0.4,0.3,0.8,0.4,1.2,0.4c0.6,0,1.2-0.3,1.6-0.8C45.3,40.3,45.1,39.1,44.2,38.4
		z"/>
	<circle class="st0" cx="24.5" cy="9.5" r="3.5"/>
	<circle class="st0" cx="4.5" cy="21.5" r="1.5"/>
</g>
</svg>
